<mxfile host="Electron" modified="2024-02-24T11:56:35.186Z" agent="Mozilla/5.0 (Macintosh; Intel Mac OS X 10_15_7) AppleWebKit/537.36 (KHTML, like Gecko) draw.io/23.0.2 Chrome/120.0.6099.109 Electron/28.1.0 Safari/537.36" etag="iDa8WxLR4bkv7NRzovY3" version="23.0.2" type="device" pages="2">
  <diagram id="VMElUyKYP9TX4gcIHSfa" name="ECU system diagram">
    <mxGraphModel dx="1213" dy="811" grid="1" gridSize="10" guides="1" tooltips="1" connect="1" arrows="1" fold="1" page="1" pageScale="1" pageWidth="1169" pageHeight="827" math="0" shadow="0">
      <root>
        <mxCell id="0" />
        <mxCell id="1" parent="0" />
        <mxCell id="-lkea0aKf5IrLJpI3piX-1" value="ECU Unit&lt;br&gt;&lt;br&gt;(Combined ECU/PDM/SDC)" style="rounded=0;whiteSpace=wrap;html=1;fillColor=#f5f5f5;gradientColor=#b3b3b3;strokeColor=#666666;fontStyle=1" parent="1" vertex="1">
          <mxGeometry x="360" y="200" width="440" height="320" as="geometry" />
        </mxCell>
        <mxCell id="-lkea0aKf5IrLJpI3piX-2" value="Dashboard" style="rounded=0;whiteSpace=wrap;html=1;fillColor=#dae8fc;gradientColor=#7ea6e0;strokeColor=#6c8ebf;" parent="1" vertex="1">
          <mxGeometry x="80" y="200" width="120" height="60" as="geometry" />
        </mxCell>
        <mxCell id="-lkea0aKf5IrLJpI3piX-6" value="Inverter" style="rounded=0;whiteSpace=wrap;html=1;fillColor=#dae8fc;gradientColor=#7ea6e0;strokeColor=#6c8ebf;" parent="1" vertex="1">
          <mxGeometry x="960" y="320" width="120" height="60" as="geometry" />
        </mxCell>
        <mxCell id="-lkea0aKf5IrLJpI3piX-7" value="BMS" style="rounded=0;whiteSpace=wrap;html=1;fillColor=#dae8fc;gradientColor=#7ea6e0;strokeColor=#6c8ebf;" parent="1" vertex="1">
          <mxGeometry x="960" y="200" width="120" height="60" as="geometry" />
        </mxCell>
        <mxCell id="-lkea0aKf5IrLJpI3piX-10" value="Wheel Speed Sensor (Front)" style="rounded=0;whiteSpace=wrap;html=1;fillColor=#dae8fc;gradientColor=#7ea6e0;strokeColor=#6c8ebf;" parent="1" vertex="1">
          <mxGeometry x="80" y="440" width="120" height="40" as="geometry" />
        </mxCell>
        <mxCell id="-lkea0aKf5IrLJpI3piX-11" value="Wheel Speed Sensor (Rear)" style="rounded=0;whiteSpace=wrap;html=1;fillColor=#dae8fc;gradientColor=#7ea6e0;strokeColor=#6c8ebf;" parent="1" vertex="1">
          <mxGeometry x="80" y="480" width="120" height="40" as="geometry" />
        </mxCell>
        <mxCell id="-lkea0aKf5IrLJpI3piX-13" value="Maintenance PC" style="rounded=0;whiteSpace=wrap;html=1;fillColor=#dae8fc;gradientColor=#7ea6e0;strokeColor=#6c8ebf;" parent="1" vertex="1">
          <mxGeometry x="960" y="480" width="120" height="40" as="geometry" />
        </mxCell>
        <mxCell id="-lkea0aKf5IrLJpI3piX-14" style="edgeStyle=orthogonalEdgeStyle;rounded=0;orthogonalLoop=1;jettySize=auto;html=1;exitX=1;exitY=0.5;exitDx=0;exitDy=0;entryX=-0.007;entryY=0.094;entryDx=0;entryDy=0;entryPerimeter=0;startArrow=none;startFill=0;endArrow=none;endFill=0;" parent="1" source="-lkea0aKf5IrLJpI3piX-2" target="-lkea0aKf5IrLJpI3piX-1" edge="1">
          <mxGeometry relative="1" as="geometry" />
        </mxCell>
        <mxCell id="-lkea0aKf5IrLJpI3piX-15" value="START_B&lt;br&gt;START_L&lt;br&gt;PWR6" style="edgeLabel;html=1;align=center;verticalAlign=middle;resizable=0;points=[];" parent="-lkea0aKf5IrLJpI3piX-14" vertex="1" connectable="0">
          <mxGeometry x="-0.2894" y="-1" relative="1" as="geometry">
            <mxPoint x="24" y="-1" as="offset" />
          </mxGeometry>
        </mxCell>
        <mxCell id="G4JdK4eMhRz7IEGB_Ucw-3" style="edgeStyle=orthogonalEdgeStyle;rounded=0;orthogonalLoop=1;jettySize=auto;html=1;exitX=1;exitY=0.5;exitDx=0;exitDy=0;entryX=-0.002;entryY=0.688;entryDx=0;entryDy=0;entryPerimeter=0;endArrow=none;endFill=0;" parent="1" source="-lkea0aKf5IrLJpI3piX-10" edge="1">
          <mxGeometry relative="1" as="geometry">
            <mxPoint x="359.1199999999999" y="460.15999999999985" as="targetPoint" />
          </mxGeometry>
        </mxCell>
        <mxCell id="LhMEMy0LMcyLHY5wDTul-1" value="WS_F&lt;br&gt;PWR5" style="edgeLabel;html=1;align=center;verticalAlign=middle;resizable=0;points=[];" parent="G4JdK4eMhRz7IEGB_Ucw-3" vertex="1" connectable="0">
          <mxGeometry x="-0.1213" y="1" relative="1" as="geometry">
            <mxPoint x="10" y="1" as="offset" />
          </mxGeometry>
        </mxCell>
        <mxCell id="G4JdK4eMhRz7IEGB_Ucw-4" style="edgeStyle=orthogonalEdgeStyle;rounded=0;orthogonalLoop=1;jettySize=auto;html=1;exitX=1;exitY=0.5;exitDx=0;exitDy=0;entryX=0;entryY=0.813;entryDx=0;entryDy=0;entryPerimeter=0;endArrow=none;endFill=0;" parent="1" source="-lkea0aKf5IrLJpI3piX-11" edge="1">
          <mxGeometry relative="1" as="geometry">
            <mxPoint x="360" y="500.15999999999985" as="targetPoint" />
          </mxGeometry>
        </mxCell>
        <mxCell id="4SZco1UzKCNZTvO3luQK-1" value="WS_R&lt;br&gt;PWR2" style="edgeLabel;html=1;align=center;verticalAlign=middle;resizable=0;points=[];" parent="G4JdK4eMhRz7IEGB_Ucw-4" vertex="1" connectable="0">
          <mxGeometry x="-0.2634" y="2" relative="1" as="geometry">
            <mxPoint x="21" y="2" as="offset" />
          </mxGeometry>
        </mxCell>
        <mxCell id="G4JdK4eMhRz7IEGB_Ucw-5" style="edgeStyle=orthogonalEdgeStyle;rounded=0;orthogonalLoop=1;jettySize=auto;html=1;exitX=0;exitY=0.5;exitDx=0;exitDy=0;entryX=1;entryY=0.091;entryDx=0;entryDy=0;entryPerimeter=0;endArrow=none;endFill=0;" parent="1" source="-lkea0aKf5IrLJpI3piX-7" target="-lkea0aKf5IrLJpI3piX-1" edge="1">
          <mxGeometry relative="1" as="geometry" />
        </mxCell>
        <mxCell id="UikdMWhgwMoschG8D8ho-1" value="CAN1&lt;br&gt;BMS_ERR&lt;br&gt;ACC_CUR&lt;br&gt;IMD_ERR&lt;br&gt;P_THERM&lt;br&gt;D_THERM&lt;br&gt;SDC_OUT&lt;br&gt;PWR4" style="edgeLabel;html=1;align=center;verticalAlign=middle;resizable=0;points=[];" parent="G4JdK4eMhRz7IEGB_Ucw-5" vertex="1" connectable="0">
          <mxGeometry x="0.1672" y="-1" relative="1" as="geometry">
            <mxPoint x="13" y="2" as="offset" />
          </mxGeometry>
        </mxCell>
        <mxCell id="G4JdK4eMhRz7IEGB_Ucw-6" style="edgeStyle=orthogonalEdgeStyle;rounded=0;orthogonalLoop=1;jettySize=auto;html=1;exitX=0;exitY=0.5;exitDx=0;exitDy=0;entryX=1;entryY=0.467;entryDx=0;entryDy=0;entryPerimeter=0;endArrow=none;endFill=0;" parent="1" source="-lkea0aKf5IrLJpI3piX-6" target="-lkea0aKf5IrLJpI3piX-1" edge="1">
          <mxGeometry relative="1" as="geometry" />
        </mxCell>
        <mxCell id="1xrvK3jXyUyMcKH5vXm6-1" value="CAN0&lt;br&gt;INV_ERR&lt;br&gt;PWR3" style="edgeLabel;html=1;align=center;verticalAlign=middle;resizable=0;points=[];" parent="G4JdK4eMhRz7IEGB_Ucw-6" vertex="1" connectable="0">
          <mxGeometry x="0.3254" y="-3" relative="1" as="geometry">
            <mxPoint x="26" y="3" as="offset" />
          </mxGeometry>
        </mxCell>
        <mxCell id="G4JdK4eMhRz7IEGB_Ucw-8" style="edgeStyle=orthogonalEdgeStyle;rounded=0;orthogonalLoop=1;jettySize=auto;html=1;exitX=0;exitY=0.5;exitDx=0;exitDy=0;entryX=0.998;entryY=0.938;entryDx=0;entryDy=0;entryPerimeter=0;endArrow=none;endFill=0;" parent="1" source="-lkea0aKf5IrLJpI3piX-13" target="-lkea0aKf5IrLJpI3piX-1" edge="1">
          <mxGeometry relative="1" as="geometry" />
        </mxCell>
        <mxCell id="G4JdK4eMhRz7IEGB_Ucw-9" value="RS232" style="edgeLabel;html=1;align=center;verticalAlign=middle;resizable=0;points=[];" parent="G4JdK4eMhRz7IEGB_Ucw-8" vertex="1" connectable="0">
          <mxGeometry x="0.2511" y="-1" relative="1" as="geometry">
            <mxPoint x="21" y="1" as="offset" />
          </mxGeometry>
        </mxCell>
        <mxCell id="UikdMWhgwMoschG8D8ho-3" style="edgeStyle=orthogonalEdgeStyle;rounded=0;orthogonalLoop=1;jettySize=auto;html=1;exitX=1;exitY=0.5;exitDx=0;exitDy=0;entryX=0;entryY=0.25;entryDx=0;entryDy=0;endArrow=none;endFill=0;" parent="1" source="UikdMWhgwMoschG8D8ho-2" target="-lkea0aKf5IrLJpI3piX-1" edge="1">
          <mxGeometry relative="1" as="geometry" />
        </mxCell>
        <mxCell id="UikdMWhgwMoschG8D8ho-4" value="CAN2&lt;br&gt;PWR6" style="edgeLabel;html=1;align=center;verticalAlign=middle;resizable=0;points=[];" parent="UikdMWhgwMoschG8D8ho-3" vertex="1" connectable="0">
          <mxGeometry x="-0.1875" y="2" relative="1" as="geometry">
            <mxPoint x="15" y="2" as="offset" />
          </mxGeometry>
        </mxCell>
        <mxCell id="UikdMWhgwMoschG8D8ho-2" value="Dash Logger" style="rounded=0;whiteSpace=wrap;html=1;fillColor=#dae8fc;gradientColor=#7ea6e0;strokeColor=#6c8ebf;" parent="1" vertex="1">
          <mxGeometry x="80" y="260" width="120" height="40" as="geometry" />
        </mxCell>
        <mxCell id="g7_eBO24lmq1PzL0XZv9-2" style="edgeStyle=orthogonalEdgeStyle;rounded=0;orthogonalLoop=1;jettySize=auto;html=1;exitX=1;exitY=0.5;exitDx=0;exitDy=0;entryX=0.002;entryY=0.533;entryDx=0;entryDy=0;entryPerimeter=0;endArrow=none;endFill=0;" parent="1" source="g7_eBO24lmq1PzL0XZv9-1" target="-lkea0aKf5IrLJpI3piX-1" edge="1">
          <mxGeometry relative="1" as="geometry">
            <mxPoint x="440" y="700" as="targetPoint" />
          </mxGeometry>
        </mxCell>
        <mxCell id="g7_eBO24lmq1PzL0XZv9-3" value="THRTL_1&lt;br style=&quot;border-color: var(--border-color);&quot;&gt;THRTL_2&lt;br&gt;BRKF&lt;br&gt;BRKR&lt;br style=&quot;border-color: var(--border-color);&quot;&gt;5V" style="edgeLabel;html=1;align=center;verticalAlign=middle;resizable=0;points=[];" parent="g7_eBO24lmq1PzL0XZv9-2" vertex="1" connectable="0">
          <mxGeometry x="-0.1878" y="2" relative="1" as="geometry">
            <mxPoint x="15" y="2" as="offset" />
          </mxGeometry>
        </mxCell>
        <mxCell id="g7_eBO24lmq1PzL0XZv9-1" value="Pedal Box&lt;br&gt;&lt;i style=&quot;font-size: 11px;&quot;&gt;Throttle Pedal Sensor&lt;br&gt;Rear Brake Sensor&lt;br&gt;Front Brake Sensor&lt;/i&gt;" style="rounded=0;whiteSpace=wrap;html=1;fillColor=#dae8fc;gradientColor=#7ea6e0;strokeColor=#6c8ebf;" parent="1" vertex="1">
          <mxGeometry x="80" y="320" width="120" height="100" as="geometry" />
        </mxCell>
      </root>
    </mxGraphModel>
  </diagram>
  <diagram name="ECU Internal v1.4" id="aNDvMXL3ovyqVdTGfb02">
    <mxGraphModel dx="1026" dy="679" grid="1" gridSize="10" guides="1" tooltips="1" connect="1" arrows="1" fold="1" page="1" pageScale="1" pageWidth="850" pageHeight="1100" math="0" shadow="0">
      <root>
        <mxCell id="bhXS3MV8dKdIblBS-BVA-0" />
        <mxCell id="bhXS3MV8dKdIblBS-BVA-1" parent="bhXS3MV8dKdIblBS-BVA-0" />
        <mxCell id="bhXS3MV8dKdIblBS-BVA-4" value="" style="rounded=0;whiteSpace=wrap;html=1;align=center;" parent="bhXS3MV8dKdIblBS-BVA-1" vertex="1">
          <mxGeometry x="211.25" y="2370" width="357" height="220" as="geometry" />
        </mxCell>
        <mxCell id="Zc1lBWjNl7q6e84oyqTN-7" value="ECU unit" style="rounded=0;whiteSpace=wrap;html=1;verticalAlign=top;dashed=1;fillColor=none;strokeWidth=2;" parent="bhXS3MV8dKdIblBS-BVA-1" vertex="1">
          <mxGeometry x="10" y="160" width="1490" height="2080" as="geometry" />
        </mxCell>
        <mxCell id="bhXS3MV8dKdIblBS-BVA-2" value="Header C" style="rounded=0;whiteSpace=wrap;html=1;fillColor=#dae8fc;strokeColor=#6c8ebf;verticalAlign=top;" parent="bhXS3MV8dKdIblBS-BVA-1" vertex="1">
          <mxGeometry x="20" y="835" width="140" height="415" as="geometry" />
        </mxCell>
        <mxCell id="bhXS3MV8dKdIblBS-BVA-3" value="Header A" style="rounded=0;whiteSpace=wrap;html=1;fillColor=#dae8fc;strokeColor=#6c8ebf;verticalAlign=top;" parent="bhXS3MV8dKdIblBS-BVA-1" vertex="1">
          <mxGeometry x="20" y="190" width="140" height="430" as="geometry" />
        </mxCell>
        <mxCell id="Zc1lBWjNl7q6e84oyqTN-19" style="edgeStyle=orthogonalEdgeStyle;rounded=0;orthogonalLoop=1;jettySize=auto;html=1;exitX=0.011;exitY=0.5;exitDx=0;exitDy=0;entryX=0;entryY=0.5;entryDx=0;entryDy=0;exitPerimeter=0;" parent="bhXS3MV8dKdIblBS-BVA-1" source="Zc1lBWjNl7q6e84oyqTN-18" target="bhXS3MV8dKdIblBS-BVA-129" edge="1">
          <mxGeometry relative="1" as="geometry" />
        </mxCell>
        <mxCell id="bhXS3MV8dKdIblBS-BVA-8" value="Microcontroller" style="rounded=0;whiteSpace=wrap;html=1;verticalAlign=top;" parent="bhXS3MV8dKdIblBS-BVA-1" vertex="1">
          <mxGeometry x="621" y="810" width="330" height="1270" as="geometry" />
        </mxCell>
        <mxCell id="bhXS3MV8dKdIblBS-BVA-9" value="Vehicle control software" style="rounded=0;whiteSpace=wrap;html=1;dashed=1;fontStyle=2" parent="bhXS3MV8dKdIblBS-BVA-1" vertex="1">
          <mxGeometry x="723.5" y="1300" width="125" height="100" as="geometry" />
        </mxCell>
        <mxCell id="bhXS3MV8dKdIblBS-BVA-10" value="PDM" style="rounded=0;whiteSpace=wrap;html=1;verticalAlign=top;dashed=1;" parent="bhXS3MV8dKdIblBS-BVA-1" vertex="1">
          <mxGeometry x="646" y="220" width="250" height="280" as="geometry" />
        </mxCell>
        <mxCell id="bhXS3MV8dKdIblBS-BVA-11" value="SDC" style="rounded=0;whiteSpace=wrap;html=1;verticalAlign=top;dashed=1;" parent="bhXS3MV8dKdIblBS-BVA-1" vertex="1">
          <mxGeometry x="501" y="570" width="570" height="150" as="geometry" />
        </mxCell>
        <mxCell id="bhXS3MV8dKdIblBS-BVA-12" style="edgeStyle=orthogonalEdgeStyle;rounded=0;orthogonalLoop=1;jettySize=auto;html=1;exitX=1;exitY=0.5;exitDx=0;exitDy=0;entryX=0.5;entryY=0;entryDx=0;entryDy=0;strokeWidth=2;" parent="bhXS3MV8dKdIblBS-BVA-1" source="bhXS3MV8dKdIblBS-BVA-152" target="bhXS3MV8dKdIblBS-BVA-47" edge="1">
          <mxGeometry relative="1" as="geometry">
            <Array as="points">
              <mxPoint x="771" y="255" />
            </Array>
            <mxPoint x="341" y="260" as="sourcePoint" />
          </mxGeometry>
        </mxCell>
        <mxCell id="bhXS3MV8dKdIblBS-BVA-13" style="edgeStyle=orthogonalEdgeStyle;rounded=0;orthogonalLoop=1;jettySize=auto;html=1;exitX=1;exitY=0.5;exitDx=0;exitDy=0;entryX=0;entryY=0.5;entryDx=0;entryDy=0;strokeWidth=2;" parent="bhXS3MV8dKdIblBS-BVA-1" source="bhXS3MV8dKdIblBS-BVA-152" target="bhXS3MV8dKdIblBS-BVA-28" edge="1">
          <mxGeometry relative="1" as="geometry">
            <Array as="points">
              <mxPoint x="461" y="255" />
              <mxPoint x="461" y="630" />
            </Array>
            <mxPoint x="341" y="260" as="sourcePoint" />
          </mxGeometry>
        </mxCell>
        <mxCell id="bhXS3MV8dKdIblBS-BVA-14" value="GLV&lt;br&gt;battery 24V" style="text;html=1;align=center;verticalAlign=middle;resizable=0;points=[];labelBackgroundColor=#ffffff;" parent="bhXS3MV8dKdIblBS-BVA-13" vertex="1" connectable="0">
          <mxGeometry x="-0.5083" y="-58" relative="1" as="geometry">
            <mxPoint x="31" y="-63" as="offset" />
          </mxGeometry>
        </mxCell>
        <mxCell id="bhXS3MV8dKdIblBS-BVA-15" value="External system" style="rounded=0;whiteSpace=wrap;html=1;fillColor=#fff2cc;strokeColor=#d6b656;" parent="bhXS3MV8dKdIblBS-BVA-1" vertex="1">
          <mxGeometry x="701" y="40" width="120" height="30" as="geometry" />
        </mxCell>
        <mxCell id="bhXS3MV8dKdIblBS-BVA-21" style="edgeStyle=orthogonalEdgeStyle;rounded=0;jumpStyle=arc;orthogonalLoop=1;jettySize=auto;html=1;exitX=0.5;exitY=0;exitDx=0;exitDy=0;entryX=0;entryY=0.5;entryDx=0;entryDy=0;startArrow=classic;startFill=1;endArrow=classic;endFill=1;" parent="bhXS3MV8dKdIblBS-BVA-1" source="bhXS3MV8dKdIblBS-BVA-22" target="bhXS3MV8dKdIblBS-BVA-23" edge="1">
          <mxGeometry relative="1" as="geometry" />
        </mxCell>
        <mxCell id="bhXS3MV8dKdIblBS-BVA-22" value="On-board SWD Header" style="rounded=0;whiteSpace=wrap;html=1;labelBackgroundColor=#ffffff;" parent="bhXS3MV8dKdIblBS-BVA-1" vertex="1">
          <mxGeometry x="510" y="2080" width="100" height="40" as="geometry" />
        </mxCell>
        <mxCell id="bhXS3MV8dKdIblBS-BVA-23" value="SWD Interface" style="rounded=0;whiteSpace=wrap;html=1;labelBackgroundColor=#ffffff;" parent="bhXS3MV8dKdIblBS-BVA-1" vertex="1">
          <mxGeometry x="621" y="2030" width="110" height="50" as="geometry" />
        </mxCell>
        <mxCell id="bhXS3MV8dKdIblBS-BVA-27" style="edgeStyle=orthogonalEdgeStyle;rounded=0;orthogonalLoop=1;jettySize=auto;html=1;exitX=1;exitY=0.5;exitDx=0;exitDy=0;entryX=0;entryY=0.5;entryDx=0;entryDy=0;" parent="bhXS3MV8dKdIblBS-BVA-1" source="bhXS3MV8dKdIblBS-BVA-28" target="bhXS3MV8dKdIblBS-BVA-30" edge="1">
          <mxGeometry relative="1" as="geometry" />
        </mxCell>
        <mxCell id="bhXS3MV8dKdIblBS-BVA-28" value="BMS Stage" style="rounded=0;whiteSpace=wrap;html=1;" parent="bhXS3MV8dKdIblBS-BVA-1" vertex="1">
          <mxGeometry x="546" y="610" width="80" height="40" as="geometry" />
        </mxCell>
        <mxCell id="bhXS3MV8dKdIblBS-BVA-29" style="edgeStyle=orthogonalEdgeStyle;rounded=0;orthogonalLoop=1;jettySize=auto;html=1;exitX=1;exitY=0.5;exitDx=0;exitDy=0;entryX=0;entryY=0.5;entryDx=0;entryDy=0;" parent="bhXS3MV8dKdIblBS-BVA-1" source="bhXS3MV8dKdIblBS-BVA-30" target="bhXS3MV8dKdIblBS-BVA-32" edge="1">
          <mxGeometry relative="1" as="geometry" />
        </mxCell>
        <mxCell id="bhXS3MV8dKdIblBS-BVA-30" value="BSPD Stage" style="rounded=0;whiteSpace=wrap;html=1;" parent="bhXS3MV8dKdIblBS-BVA-1" vertex="1">
          <mxGeometry x="646" y="610" width="80" height="40" as="geometry" />
        </mxCell>
        <mxCell id="bhXS3MV8dKdIblBS-BVA-31" style="edgeStyle=orthogonalEdgeStyle;rounded=0;orthogonalLoop=1;jettySize=auto;html=1;exitX=1;exitY=0.5;exitDx=0;exitDy=0;entryX=0;entryY=0.5;entryDx=0;entryDy=0;" parent="bhXS3MV8dKdIblBS-BVA-1" source="bhXS3MV8dKdIblBS-BVA-32" target="bhXS3MV8dKdIblBS-BVA-34" edge="1">
          <mxGeometry relative="1" as="geometry" />
        </mxCell>
        <mxCell id="bhXS3MV8dKdIblBS-BVA-32" value="IMD Stage" style="rounded=0;whiteSpace=wrap;html=1;" parent="bhXS3MV8dKdIblBS-BVA-1" vertex="1">
          <mxGeometry x="746.5" y="610" width="80" height="40" as="geometry" />
        </mxCell>
        <mxCell id="bhXS3MV8dKdIblBS-BVA-33" style="edgeStyle=orthogonalEdgeStyle;rounded=0;orthogonalLoop=1;jettySize=auto;html=1;exitX=1;exitY=0.5;exitDx=0;exitDy=0;entryX=0;entryY=0.5;entryDx=0;entryDy=0;" parent="bhXS3MV8dKdIblBS-BVA-1" source="bhXS3MV8dKdIblBS-BVA-34" target="bhXS3MV8dKdIblBS-BVA-36" edge="1">
          <mxGeometry relative="1" as="geometry" />
        </mxCell>
        <mxCell id="bhXS3MV8dKdIblBS-BVA-34" value="PDOC Stage" style="rounded=0;whiteSpace=wrap;html=1;" parent="bhXS3MV8dKdIblBS-BVA-1" vertex="1">
          <mxGeometry x="846" y="610" width="80" height="40" as="geometry" />
        </mxCell>
        <mxCell id="bhXS3MV8dKdIblBS-BVA-35" style="edgeStyle=orthogonalEdgeStyle;rounded=0;orthogonalLoop=1;jettySize=auto;html=1;exitX=1;exitY=0.5;exitDx=0;exitDy=0;entryX=1;entryY=0.5;entryDx=0;entryDy=0;jumpStyle=arc;strokeWidth=1;" parent="bhXS3MV8dKdIblBS-BVA-1" source="bhXS3MV8dKdIblBS-BVA-36" target="bhXS3MV8dKdIblBS-BVA-38" edge="1">
          <mxGeometry relative="1" as="geometry">
            <Array as="points">
              <mxPoint x="1101" y="630" />
              <mxPoint x="1101" y="535" />
              <mxPoint x="360" y="535" />
              <mxPoint x="360" y="575" />
            </Array>
          </mxGeometry>
        </mxCell>
        <mxCell id="bhXS3MV8dKdIblBS-BVA-36" value="ECU Stage" style="rounded=0;whiteSpace=wrap;html=1;" parent="bhXS3MV8dKdIblBS-BVA-1" vertex="1">
          <mxGeometry x="946" y="610" width="80" height="40" as="geometry" />
        </mxCell>
        <mxCell id="bhXS3MV8dKdIblBS-BVA-37" value="Logical boundary" style="rounded=0;whiteSpace=wrap;html=1;dashed=1;" parent="bhXS3MV8dKdIblBS-BVA-1" vertex="1">
          <mxGeometry x="701" y="80" width="120" height="30" as="geometry" />
        </mxCell>
        <mxCell id="bhXS3MV8dKdIblBS-BVA-38" value="SDC_OUT" style="rounded=0;whiteSpace=wrap;html=1;fillColor=#fff2cc;strokeColor=#d6b656;" parent="bhXS3MV8dKdIblBS-BVA-1" vertex="1">
          <mxGeometry x="48.5" y="560" width="80" height="30" as="geometry" />
        </mxCell>
        <mxCell id="bhXS3MV8dKdIblBS-BVA-40" style="edgeStyle=orthogonalEdgeStyle;rounded=0;jumpStyle=arc;orthogonalLoop=1;jettySize=auto;html=1;exitX=1;exitY=0.5;exitDx=0;exitDy=0;entryX=0.434;entryY=0.999;entryDx=0;entryDy=0;startArrow=none;startFill=0;endArrow=classic;endFill=1;entryPerimeter=0;" parent="bhXS3MV8dKdIblBS-BVA-1" source="bhXS3MV8dKdIblBS-BVA-197" target="bhXS3MV8dKdIblBS-BVA-34" edge="1">
          <mxGeometry relative="1" as="geometry">
            <Array as="points">
              <mxPoint x="470" y="995" />
              <mxPoint x="470" y="780" />
              <mxPoint x="881" y="780" />
            </Array>
            <mxPoint x="341" y="954.9999999999998" as="sourcePoint" />
          </mxGeometry>
        </mxCell>
        <mxCell id="bhXS3MV8dKdIblBS-BVA-43" value="GPIO out" style="rounded=0;whiteSpace=wrap;html=1;labelBackgroundColor=#ffffff;" parent="bhXS3MV8dKdIblBS-BVA-1" vertex="1">
          <mxGeometry x="871" y="850" width="80" height="30" as="geometry" />
        </mxCell>
        <mxCell id="Zc1lBWjNl7q6e84oyqTN-53" style="edgeStyle=orthogonalEdgeStyle;rounded=0;orthogonalLoop=1;jettySize=auto;html=1;exitX=1;exitY=0.5;exitDx=0;exitDy=0;entryX=0;entryY=0.5;entryDx=0;entryDy=0;strokeWidth=2;" parent="bhXS3MV8dKdIblBS-BVA-1" source="bhXS3MV8dKdIblBS-BVA-47" target="Zc1lBWjNl7q6e84oyqTN-51" edge="1">
          <mxGeometry relative="1" as="geometry">
            <Array as="points">
              <mxPoint x="960" y="288" />
              <mxPoint x="960" y="208" />
            </Array>
          </mxGeometry>
        </mxCell>
        <mxCell id="Zc1lBWjNl7q6e84oyqTN-56" style="edgeStyle=orthogonalEdgeStyle;rounded=0;orthogonalLoop=1;jettySize=auto;html=1;exitX=1;exitY=0.5;exitDx=0;exitDy=0;entryX=0;entryY=0.5;entryDx=0;entryDy=0;strokeWidth=2;" parent="bhXS3MV8dKdIblBS-BVA-1" source="bhXS3MV8dKdIblBS-BVA-47" target="Zc1lBWjNl7q6e84oyqTN-54" edge="1">
          <mxGeometry relative="1" as="geometry">
            <Array as="points">
              <mxPoint x="960" y="288" />
              <mxPoint x="960" y="233" />
            </Array>
          </mxGeometry>
        </mxCell>
        <mxCell id="bhXS3MV8dKdIblBS-BVA-47" value="24V/5V DC-DC converter" style="rounded=0;whiteSpace=wrap;html=1;" parent="bhXS3MV8dKdIblBS-BVA-1" vertex="1">
          <mxGeometry x="711" y="270" width="120" height="35" as="geometry" />
        </mxCell>
        <mxCell id="bhXS3MV8dKdIblBS-BVA-48" style="edgeStyle=orthogonalEdgeStyle;rounded=0;jumpStyle=arc;orthogonalLoop=1;jettySize=auto;html=1;exitX=0;exitY=0.5;exitDx=0;exitDy=0;entryX=1;entryY=0.5;entryDx=0;entryDy=0;startArrow=none;startFill=0;endArrow=classic;endFill=1;strokeWidth=2;" parent="bhXS3MV8dKdIblBS-BVA-1" source="bhXS3MV8dKdIblBS-BVA-50" target="bhXS3MV8dKdIblBS-BVA-153" edge="1">
          <mxGeometry relative="1" as="geometry">
            <Array as="points" />
            <mxPoint x="341" y="360" as="targetPoint" />
          </mxGeometry>
        </mxCell>
        <mxCell id="bhXS3MV8dKdIblBS-BVA-49" value="Power ch1" style="text;html=1;align=center;verticalAlign=middle;resizable=0;points=[];labelBackgroundColor=#ffffff;" parent="bhXS3MV8dKdIblBS-BVA-48" vertex="1" connectable="0">
          <mxGeometry x="-0.2796" relative="1" as="geometry">
            <mxPoint x="29" as="offset" />
          </mxGeometry>
        </mxCell>
        <mxCell id="bhXS3MV8dKdIblBS-BVA-50" value="&lt;font color=&quot;#ff3333&quot;&gt;PDM Relay 1&lt;/font&gt;" style="rounded=0;whiteSpace=wrap;html=1;strokeColor=#FF3333;" parent="bhXS3MV8dKdIblBS-BVA-1" vertex="1">
          <mxGeometry x="711" y="305" width="120" height="30" as="geometry" />
        </mxCell>
        <mxCell id="bhXS3MV8dKdIblBS-BVA-51" style="edgeStyle=orthogonalEdgeStyle;rounded=0;jumpStyle=arc;orthogonalLoop=1;jettySize=auto;html=1;exitX=0;exitY=0.5;exitDx=0;exitDy=0;entryX=1;entryY=0.5;entryDx=0;entryDy=0;startArrow=none;startFill=0;endArrow=classic;endFill=1;strokeWidth=2;" parent="bhXS3MV8dKdIblBS-BVA-1" source="Zc1lBWjNl7q6e84oyqTN-44" target="bhXS3MV8dKdIblBS-BVA-154" edge="1">
          <mxGeometry relative="1" as="geometry">
            <Array as="points">
              <mxPoint x="460" y="350" />
              <mxPoint x="460" y="350" />
            </Array>
            <mxPoint x="341" y="390" as="targetPoint" />
            <mxPoint x="711" y="342.5" as="sourcePoint" />
          </mxGeometry>
        </mxCell>
        <mxCell id="bhXS3MV8dKdIblBS-BVA-52" value="Power ch2" style="text;html=1;align=center;verticalAlign=middle;resizable=0;points=[];labelBackgroundColor=#ffffff;" parent="bhXS3MV8dKdIblBS-BVA-51" vertex="1" connectable="0">
          <mxGeometry x="-0.382" y="-2" relative="1" as="geometry">
            <mxPoint x="9" y="2" as="offset" />
          </mxGeometry>
        </mxCell>
        <mxCell id="bhXS3MV8dKdIblBS-BVA-53" style="edgeStyle=orthogonalEdgeStyle;rounded=0;jumpStyle=arc;orthogonalLoop=1;jettySize=auto;html=1;exitX=0;exitY=0.5;exitDx=0;exitDy=0;entryX=1;entryY=0.5;entryDx=0;entryDy=0;startArrow=none;startFill=0;endArrow=classic;endFill=1;strokeWidth=2;" parent="bhXS3MV8dKdIblBS-BVA-1" source="Zc1lBWjNl7q6e84oyqTN-46" target="bhXS3MV8dKdIblBS-BVA-156" edge="1">
          <mxGeometry relative="1" as="geometry">
            <Array as="points">
              <mxPoint x="630" y="410" />
              <mxPoint x="630" y="410" />
            </Array>
            <mxPoint x="341" y="450" as="targetPoint" />
            <mxPoint x="711" y="392.5" as="sourcePoint" />
          </mxGeometry>
        </mxCell>
        <mxCell id="bhXS3MV8dKdIblBS-BVA-54" value="Power ch4" style="text;html=1;align=center;verticalAlign=middle;resizable=0;points=[];labelBackgroundColor=#ffffff;" parent="bhXS3MV8dKdIblBS-BVA-53" vertex="1" connectable="0">
          <mxGeometry x="-0.4667" y="4" relative="1" as="geometry">
            <mxPoint x="-6" y="-4" as="offset" />
          </mxGeometry>
        </mxCell>
        <mxCell id="bhXS3MV8dKdIblBS-BVA-55" style="edgeStyle=orthogonalEdgeStyle;rounded=0;jumpStyle=arc;orthogonalLoop=1;jettySize=auto;html=1;exitX=0;exitY=0.5;exitDx=0;exitDy=0;entryX=1;entryY=0.5;entryDx=0;entryDy=0;startArrow=none;startFill=0;endArrow=classic;endFill=1;strokeWidth=2;" parent="bhXS3MV8dKdIblBS-BVA-1" source="Zc1lBWjNl7q6e84oyqTN-45" target="bhXS3MV8dKdIblBS-BVA-155" edge="1">
          <mxGeometry relative="1" as="geometry">
            <Array as="points">
              <mxPoint x="450" y="380" />
              <mxPoint x="450" y="380" />
            </Array>
            <mxPoint x="341" y="420" as="targetPoint" />
            <mxPoint x="711" y="368.75" as="sourcePoint" />
          </mxGeometry>
        </mxCell>
        <mxCell id="bhXS3MV8dKdIblBS-BVA-56" value="Power ch3" style="text;html=1;align=center;verticalAlign=middle;resizable=0;points=[];labelBackgroundColor=#ffffff;" parent="bhXS3MV8dKdIblBS-BVA-55" vertex="1" connectable="0">
          <mxGeometry x="-0.4556" y="-1" relative="1" as="geometry">
            <mxPoint x="-5" y="1" as="offset" />
          </mxGeometry>
        </mxCell>
        <mxCell id="O4VgA1XZGmtUZAkumfmo-1" style="edgeStyle=orthogonalEdgeStyle;rounded=0;orthogonalLoop=1;jettySize=auto;html=1;exitX=1;exitY=0.5;exitDx=0;exitDy=0;entryX=0;entryY=0.5;entryDx=0;entryDy=0;" parent="bhXS3MV8dKdIblBS-BVA-1" source="bhXS3MV8dKdIblBS-BVA-60" target="O4VgA1XZGmtUZAkumfmo-0" edge="1">
          <mxGeometry relative="1" as="geometry" />
        </mxCell>
        <mxCell id="bhXS3MV8dKdIblBS-BVA-60" value="&lt;font&gt;GPIO out&lt;br&gt;x6&lt;/font&gt;" style="rounded=0;whiteSpace=wrap;html=1;labelBackgroundColor=#ffffff;" parent="bhXS3MV8dKdIblBS-BVA-1" vertex="1">
          <mxGeometry x="871" y="890" width="80" height="30" as="geometry" />
        </mxCell>
        <mxCell id="bhXS3MV8dKdIblBS-BVA-68" value="&lt;h1&gt;ECU (Combined ECU/PDM/SDC) - v1.4&lt;/h1&gt;" style="text;html=1;strokeColor=none;fillColor=none;spacing=5;spacingTop=-20;whiteSpace=wrap;overflow=hidden;rounded=0;" parent="bhXS3MV8dKdIblBS-BVA-1" vertex="1">
          <mxGeometry x="21" y="20" width="500" height="40" as="geometry" />
        </mxCell>
        <mxCell id="bhXS3MV8dKdIblBS-BVA-76" style="edgeStyle=orthogonalEdgeStyle;rounded=0;jumpStyle=arc;orthogonalLoop=1;jettySize=auto;html=1;exitX=1;exitY=0.5;exitDx=0;exitDy=0;entryX=0.5;entryY=1;entryDx=0;entryDy=0;startArrow=none;startFill=0;endArrow=classic;endFill=1;" parent="bhXS3MV8dKdIblBS-BVA-1" source="bhXS3MV8dKdIblBS-BVA-43" target="bhXS3MV8dKdIblBS-BVA-36" edge="1">
          <mxGeometry relative="1" as="geometry">
            <mxPoint x="951" y="865" as="sourcePoint" />
            <mxPoint x="993.5" y="810" as="targetPoint" />
          </mxGeometry>
        </mxCell>
        <mxCell id="bhXS3MV8dKdIblBS-BVA-77" value="ECU SDC&lt;br&gt;shutdown" style="text;html=1;align=center;verticalAlign=middle;resizable=0;points=[];labelBackgroundColor=#ffffff;" parent="bhXS3MV8dKdIblBS-BVA-76" vertex="1" connectable="0">
          <mxGeometry x="-0.2" y="-5" relative="1" as="geometry">
            <mxPoint y="-32" as="offset" />
          </mxGeometry>
        </mxCell>
        <mxCell id="bhXS3MV8dKdIblBS-BVA-90" style="edgeStyle=orthogonalEdgeStyle;rounded=0;orthogonalLoop=1;jettySize=auto;html=1;exitX=0;exitY=0.5;exitDx=0;exitDy=0;entryX=1;entryY=0.5;entryDx=0;entryDy=0;strokeWidth=2;" parent="bhXS3MV8dKdIblBS-BVA-1" source="bhXS3MV8dKdIblBS-BVA-92" target="Ujjv7-og6DaEMyTGlRil-3" edge="1">
          <mxGeometry relative="1" as="geometry">
            <mxPoint x="971" y="1445" as="targetPoint" />
          </mxGeometry>
        </mxCell>
        <mxCell id="bhXS3MV8dKdIblBS-BVA-91" value="Power-off supply&lt;br&gt;for RTC" style="text;html=1;align=center;verticalAlign=middle;resizable=0;points=[];labelBackgroundColor=#ffffff;" parent="bhXS3MV8dKdIblBS-BVA-90" vertex="1" connectable="0">
          <mxGeometry x="-0.225" relative="1" as="geometry">
            <mxPoint x="-9" y="-5" as="offset" />
          </mxGeometry>
        </mxCell>
        <mxCell id="bhXS3MV8dKdIblBS-BVA-92" value="Cell Battery" style="rounded=0;whiteSpace=wrap;html=1;" parent="bhXS3MV8dKdIblBS-BVA-1" vertex="1">
          <mxGeometry x="1250" y="1115" width="100" height="60" as="geometry" />
        </mxCell>
        <mxCell id="bhXS3MV8dKdIblBS-BVA-93" value="IMU" style="rounded=0;whiteSpace=wrap;html=1;" parent="bhXS3MV8dKdIblBS-BVA-1" vertex="1">
          <mxGeometry x="1094" y="1300" width="100" height="60" as="geometry" />
        </mxCell>
        <mxCell id="bhXS3MV8dKdIblBS-BVA-96" style="edgeStyle=orthogonalEdgeStyle;rounded=0;orthogonalLoop=1;jettySize=auto;html=1;exitX=1;exitY=0.5;exitDx=0;exitDy=0;entryX=0;entryY=0.5;entryDx=0;entryDy=0;strokeWidth=1;startArrow=classic;startFill=1;" parent="bhXS3MV8dKdIblBS-BVA-1" source="bhXS3MV8dKdIblBS-BVA-97" target="bhXS3MV8dKdIblBS-BVA-93" edge="1">
          <mxGeometry relative="1" as="geometry" />
        </mxCell>
        <mxCell id="bhXS3MV8dKdIblBS-BVA-97" value="I2C controller" style="rounded=0;whiteSpace=wrap;html=1;" parent="bhXS3MV8dKdIblBS-BVA-1" vertex="1">
          <mxGeometry x="871" y="1300" width="80" height="60" as="geometry" />
        </mxCell>
        <mxCell id="Ujjv7-og6DaEMyTGlRil-2" style="edgeStyle=orthogonalEdgeStyle;rounded=0;orthogonalLoop=1;jettySize=auto;html=1;exitX=1;exitY=0.5;exitDx=0;exitDy=0;entryX=1;entryY=0.75;entryDx=0;entryDy=0;startArrow=classic;startFill=1;" parent="bhXS3MV8dKdIblBS-BVA-1" source="bhXS3MV8dKdIblBS-BVA-100" target="bhXS3MV8dKdIblBS-BVA-112" edge="1">
          <mxGeometry relative="1" as="geometry">
            <Array as="points">
              <mxPoint x="1010" y="1870" />
              <mxPoint x="1010" y="2180" />
            </Array>
          </mxGeometry>
        </mxCell>
        <mxCell id="bhXS3MV8dKdIblBS-BVA-100" value="SPI controller" style="rounded=0;whiteSpace=wrap;html=1;" parent="bhXS3MV8dKdIblBS-BVA-1" vertex="1">
          <mxGeometry x="871" y="1840" width="80" height="60" as="geometry" />
        </mxCell>
        <mxCell id="Ujjv7-og6DaEMyTGlRil-1" style="edgeStyle=orthogonalEdgeStyle;rounded=0;orthogonalLoop=1;jettySize=auto;html=1;exitX=1;exitY=0.5;exitDx=0;exitDy=0;entryX=1;entryY=0.5;entryDx=0;entryDy=0;startArrow=classic;startFill=1;" parent="bhXS3MV8dKdIblBS-BVA-1" source="bhXS3MV8dKdIblBS-BVA-102" target="bhXS3MV8dKdIblBS-BVA-112" edge="1">
          <mxGeometry relative="1" as="geometry">
            <Array as="points">
              <mxPoint x="990" y="1930" />
              <mxPoint x="990" y="2160" />
            </Array>
          </mxGeometry>
        </mxCell>
        <mxCell id="bhXS3MV8dKdIblBS-BVA-102" value="I2C controller" style="rounded=0;whiteSpace=wrap;html=1;" parent="bhXS3MV8dKdIblBS-BVA-1" vertex="1">
          <mxGeometry x="871" y="1900" width="80" height="60" as="geometry" />
        </mxCell>
        <mxCell id="Ujjv7-og6DaEMyTGlRil-0" style="edgeStyle=orthogonalEdgeStyle;rounded=0;orthogonalLoop=1;jettySize=auto;html=1;exitX=1;exitY=0.5;exitDx=0;exitDy=0;entryX=1;entryY=0.25;entryDx=0;entryDy=0;startArrow=classic;startFill=1;" parent="bhXS3MV8dKdIblBS-BVA-1" source="bhXS3MV8dKdIblBS-BVA-104" target="bhXS3MV8dKdIblBS-BVA-112" edge="1">
          <mxGeometry relative="1" as="geometry" />
        </mxCell>
        <mxCell id="bhXS3MV8dKdIblBS-BVA-104" value="GPIO" style="rounded=0;whiteSpace=wrap;html=1;labelBackgroundColor=#ffffff;" parent="bhXS3MV8dKdIblBS-BVA-1" vertex="1">
          <mxGeometry x="871" y="1960" width="80" height="30" as="geometry" />
        </mxCell>
        <mxCell id="bhXS3MV8dKdIblBS-BVA-112" value="Expansion header" style="rounded=0;whiteSpace=wrap;html=1;" parent="bhXS3MV8dKdIblBS-BVA-1" vertex="1">
          <mxGeometry x="686" y="2120" width="200" height="80" as="geometry" />
        </mxCell>
        <mxCell id="bhXS3MV8dKdIblBS-BVA-115" value="&lt;b&gt;Multi-purpose buffered IO (MPIO)&lt;br&gt;&lt;/b&gt;Acts as buffer between 5V external IO and 3.3V IO voltage, providing configurable options for analog input and GPIO" style="text;html=1;align=left;verticalAlign=middle;resizable=0;points=[];autosize=1;" parent="bhXS3MV8dKdIblBS-BVA-1" vertex="1">
          <mxGeometry x="61" y="2320" width="640" height="40" as="geometry" />
        </mxCell>
        <mxCell id="bhXS3MV8dKdIblBS-BVA-116" value="External MPIO pin" style="text;html=1;align=center;verticalAlign=middle;resizable=0;points=[];autosize=1;" parent="bhXS3MV8dKdIblBS-BVA-1" vertex="1">
          <mxGeometry x="75.75" y="2505" width="120" height="30" as="geometry" />
        </mxCell>
        <mxCell id="bhXS3MV8dKdIblBS-BVA-117" style="edgeStyle=orthogonalEdgeStyle;rounded=0;orthogonalLoop=1;jettySize=auto;html=1;exitX=1;exitY=0.5;exitDx=0;exitDy=0;startArrow=none;startFill=0;endArrow=classic;endFill=1;entryX=-0.03;entryY=0.5;entryDx=0;entryDy=0;entryPerimeter=0;" parent="bhXS3MV8dKdIblBS-BVA-1" source="bhXS3MV8dKdIblBS-BVA-119" target="bhXS3MV8dKdIblBS-BVA-120" edge="1">
          <mxGeometry relative="1" as="geometry">
            <mxPoint x="598.25" y="2520" as="targetPoint" />
          </mxGeometry>
        </mxCell>
        <mxCell id="bhXS3MV8dKdIblBS-BVA-118" style="edgeStyle=orthogonalEdgeStyle;rounded=0;orthogonalLoop=1;jettySize=auto;html=1;exitX=0;exitY=0.5;exitDx=0;exitDy=0;startArrow=none;startFill=0;endArrow=none;endFill=0;jumpStyle=arc;entryX=1.02;entryY=0.5;entryDx=0;entryDy=0;entryPerimeter=0;" parent="bhXS3MV8dKdIblBS-BVA-1" source="bhXS3MV8dKdIblBS-BVA-119" target="bhXS3MV8dKdIblBS-BVA-116" edge="1">
          <mxGeometry relative="1" as="geometry">
            <mxPoint x="208.25" y="2520" as="targetPoint" />
          </mxGeometry>
        </mxCell>
        <mxCell id="bhXS3MV8dKdIblBS-BVA-119" value="" style="verticalLabelPosition=bottom;shadow=0;dashed=0;align=center;html=1;verticalAlign=top;shape=mxgraph.electrical.logic_gates.buffer2;labelBackgroundColor=#ffffff;" parent="bhXS3MV8dKdIblBS-BVA-1" vertex="1">
          <mxGeometry x="402.75" y="2500" width="60" height="40" as="geometry" />
        </mxCell>
        <mxCell id="bhXS3MV8dKdIblBS-BVA-120" value="Measure" style="text;html=1;align=left;verticalAlign=middle;resizable=0;points=[];autosize=1;" parent="bhXS3MV8dKdIblBS-BVA-1" vertex="1">
          <mxGeometry x="588.25" y="2505" width="70" height="30" as="geometry" />
        </mxCell>
        <mxCell id="bhXS3MV8dKdIblBS-BVA-123" value="signal op-amp&lt;br&gt;(0.66x for 5V -&amp;gt; 3.3V)" style="text;html=1;align=center;verticalAlign=middle;resizable=0;points=[];autosize=1;" parent="bhXS3MV8dKdIblBS-BVA-1" vertex="1">
          <mxGeometry x="380.75" y="2535" width="140" height="40" as="geometry" />
        </mxCell>
        <mxCell id="bhXS3MV8dKdIblBS-BVA-137" value="Output enable" style="text;html=1;align=left;verticalAlign=middle;resizable=0;points=[];autosize=1;" parent="bhXS3MV8dKdIblBS-BVA-1" vertex="1">
          <mxGeometry x="588.25" y="2385" width="100" height="30" as="geometry" />
        </mxCell>
        <mxCell id="bhXS3MV8dKdIblBS-BVA-138" value="Header B" style="rounded=0;whiteSpace=wrap;html=1;fillColor=#dae8fc;strokeColor=#6c8ebf;verticalAlign=top;" parent="bhXS3MV8dKdIblBS-BVA-1" vertex="1">
          <mxGeometry x="20" y="1710" width="140" height="370" as="geometry" />
        </mxCell>
        <mxCell id="bhXS3MV8dKdIblBS-BVA-139" value="Header D" style="rounded=0;whiteSpace=wrap;html=1;fillColor=#dae8fc;strokeColor=#6c8ebf;verticalAlign=top;" parent="bhXS3MV8dKdIblBS-BVA-1" vertex="1">
          <mxGeometry x="20" y="1310" width="140" height="390" as="geometry" />
        </mxCell>
        <mxCell id="bhXS3MV8dKdIblBS-BVA-140" value="GPS" style="rounded=0;whiteSpace=wrap;html=1;" parent="bhXS3MV8dKdIblBS-BVA-1" vertex="1">
          <mxGeometry x="1094" y="1220" width="100" height="70" as="geometry" />
        </mxCell>
        <mxCell id="bhXS3MV8dKdIblBS-BVA-141" style="edgeStyle=orthogonalEdgeStyle;rounded=0;orthogonalLoop=1;jettySize=auto;html=1;exitX=1;exitY=0.5;exitDx=0;exitDy=0;entryX=0;entryY=0.5;entryDx=0;entryDy=0;strokeWidth=1;startArrow=classic;startFill=1;" parent="bhXS3MV8dKdIblBS-BVA-1" source="bhXS3MV8dKdIblBS-BVA-142" target="bhXS3MV8dKdIblBS-BVA-140" edge="1">
          <mxGeometry relative="1" as="geometry" />
        </mxCell>
        <mxCell id="bhXS3MV8dKdIblBS-BVA-142" value="UART" style="rounded=0;whiteSpace=wrap;html=1;" parent="bhXS3MV8dKdIblBS-BVA-1" vertex="1">
          <mxGeometry x="871" y="1225" width="80" height="60" as="geometry" />
        </mxCell>
        <mxCell id="bhXS3MV8dKdIblBS-BVA-143" value="SD Card" style="rounded=0;whiteSpace=wrap;html=1;" parent="bhXS3MV8dKdIblBS-BVA-1" vertex="1">
          <mxGeometry x="1094" y="1437" width="100" height="60" as="geometry" />
        </mxCell>
        <mxCell id="bhXS3MV8dKdIblBS-BVA-144" style="edgeStyle=orthogonalEdgeStyle;rounded=0;orthogonalLoop=1;jettySize=auto;html=1;exitX=1;exitY=0.5;exitDx=0;exitDy=0;entryX=0;entryY=0.5;entryDx=0;entryDy=0;strokeWidth=1;startArrow=classic;startFill=1;" parent="bhXS3MV8dKdIblBS-BVA-1" source="bhXS3MV8dKdIblBS-BVA-145" target="bhXS3MV8dKdIblBS-BVA-143" edge="1">
          <mxGeometry relative="1" as="geometry" />
        </mxCell>
        <mxCell id="bhXS3MV8dKdIblBS-BVA-145" value="SDMMC" style="rounded=0;whiteSpace=wrap;html=1;" parent="bhXS3MV8dKdIblBS-BVA-1" vertex="1">
          <mxGeometry x="871" y="1437" width="80" height="60" as="geometry" />
        </mxCell>
        <mxCell id="bhXS3MV8dKdIblBS-BVA-146" style="edgeStyle=orthogonalEdgeStyle;rounded=0;orthogonalLoop=1;jettySize=auto;html=1;exitX=0;exitY=0.5;exitDx=0;exitDy=0;entryX=1;entryY=0.5;entryDx=0;entryDy=0;startArrow=none;startFill=0;strokeWidth=2;" parent="bhXS3MV8dKdIblBS-BVA-1" source="Zc1lBWjNl7q6e84oyqTN-47" target="bhXS3MV8dKdIblBS-BVA-157" edge="1">
          <mxGeometry relative="1" as="geometry">
            <Array as="points">
              <mxPoint x="470" y="440" />
              <mxPoint x="470" y="440" />
            </Array>
            <mxPoint x="711" y="418.75" as="sourcePoint" />
          </mxGeometry>
        </mxCell>
        <mxCell id="bhXS3MV8dKdIblBS-BVA-147" value="Power ch5" style="edgeLabel;html=1;align=center;verticalAlign=middle;resizable=0;points=[];labelBackgroundColor=#ffffff;" parent="bhXS3MV8dKdIblBS-BVA-146" vertex="1" connectable="0">
          <mxGeometry x="-0.5849" y="-1" relative="1" as="geometry">
            <mxPoint as="offset" />
          </mxGeometry>
        </mxCell>
        <mxCell id="bhXS3MV8dKdIblBS-BVA-149" style="edgeStyle=orthogonalEdgeStyle;rounded=0;orthogonalLoop=1;jettySize=auto;html=1;exitX=0;exitY=0.5;exitDx=0;exitDy=0;entryX=1;entryY=0.5;entryDx=0;entryDy=0;startArrow=none;startFill=0;strokeWidth=2;" parent="bhXS3MV8dKdIblBS-BVA-1" source="Zc1lBWjNl7q6e84oyqTN-48" target="bhXS3MV8dKdIblBS-BVA-158" edge="1">
          <mxGeometry relative="1" as="geometry">
            <Array as="points">
              <mxPoint x="470" y="470" />
              <mxPoint x="470" y="470" />
            </Array>
            <mxPoint x="711" y="445" as="sourcePoint" />
          </mxGeometry>
        </mxCell>
        <mxCell id="bhXS3MV8dKdIblBS-BVA-150" value="Power ch6" style="edgeLabel;html=1;align=center;verticalAlign=middle;resizable=0;points=[];labelBackgroundColor=#ffffff;" parent="bhXS3MV8dKdIblBS-BVA-149" vertex="1" connectable="0">
          <mxGeometry x="-0.6562" y="-1" relative="1" as="geometry">
            <mxPoint as="offset" />
          </mxGeometry>
        </mxCell>
        <mxCell id="bhXS3MV8dKdIblBS-BVA-151" value="IMD_ERR" style="rounded=0;whiteSpace=wrap;html=1;fillColor=#fff2cc;strokeColor=#d6b656;" parent="bhXS3MV8dKdIblBS-BVA-1" vertex="1">
          <mxGeometry x="50" y="935" width="80" height="30" as="geometry" />
        </mxCell>
        <mxCell id="bhXS3MV8dKdIblBS-BVA-152" value="LV Battery" style="rounded=0;whiteSpace=wrap;html=1;fillColor=#fff2cc;strokeColor=#d6b656;" parent="bhXS3MV8dKdIblBS-BVA-1" vertex="1">
          <mxGeometry x="48.5" y="240" width="80" height="30" as="geometry" />
        </mxCell>
        <mxCell id="bhXS3MV8dKdIblBS-BVA-153" value="PWR1 (24V)" style="rounded=0;whiteSpace=wrap;html=1;fillColor=#fff2cc;strokeColor=#d6b656;" parent="bhXS3MV8dKdIblBS-BVA-1" vertex="1">
          <mxGeometry x="48.5" y="305" width="80" height="30" as="geometry" />
        </mxCell>
        <mxCell id="bhXS3MV8dKdIblBS-BVA-154" value="PWR2&amp;nbsp;(24V)" style="rounded=0;whiteSpace=wrap;html=1;fillColor=#fff2cc;strokeColor=#d6b656;" parent="bhXS3MV8dKdIblBS-BVA-1" vertex="1">
          <mxGeometry x="48.5" y="335" width="80" height="30" as="geometry" />
        </mxCell>
        <mxCell id="bhXS3MV8dKdIblBS-BVA-155" value="PWR3&amp;nbsp;(24V)" style="rounded=0;whiteSpace=wrap;html=1;fillColor=#fff2cc;strokeColor=#d6b656;" parent="bhXS3MV8dKdIblBS-BVA-1" vertex="1">
          <mxGeometry x="48.5" y="365" width="80" height="30" as="geometry" />
        </mxCell>
        <mxCell id="bhXS3MV8dKdIblBS-BVA-156" value="PWR4&amp;nbsp;(24V)" style="rounded=0;whiteSpace=wrap;html=1;fillColor=#fff2cc;strokeColor=#d6b656;" parent="bhXS3MV8dKdIblBS-BVA-1" vertex="1">
          <mxGeometry x="48.5" y="395" width="80" height="30" as="geometry" />
        </mxCell>
        <mxCell id="bhXS3MV8dKdIblBS-BVA-157" value="PWR5&amp;nbsp;(24V)" style="rounded=0;whiteSpace=wrap;html=1;fillColor=#fff2cc;strokeColor=#d6b656;" parent="bhXS3MV8dKdIblBS-BVA-1" vertex="1">
          <mxGeometry x="48.5" y="425" width="80" height="30" as="geometry" />
        </mxCell>
        <mxCell id="bhXS3MV8dKdIblBS-BVA-158" value="PWR6&amp;nbsp;(24V)" style="rounded=0;whiteSpace=wrap;html=1;fillColor=#fff2cc;strokeColor=#d6b656;" parent="bhXS3MV8dKdIblBS-BVA-1" vertex="1">
          <mxGeometry x="48.5" y="455" width="80" height="30" as="geometry" />
        </mxCell>
        <mxCell id="bhXS3MV8dKdIblBS-BVA-159" value="BMS_ERR" style="rounded=0;whiteSpace=wrap;html=1;fillColor=#fff2cc;strokeColor=#d6b656;" parent="bhXS3MV8dKdIblBS-BVA-1" vertex="1">
          <mxGeometry x="50" y="875" width="80" height="30" as="geometry" />
        </mxCell>
        <mxCell id="lXTbxmUrdeCoC9fVBDge-7" style="edgeStyle=orthogonalEdgeStyle;rounded=0;orthogonalLoop=1;jettySize=auto;html=1;exitX=1;exitY=0.5;exitDx=0;exitDy=0;entryX=0;entryY=0.5;entryDx=0;entryDy=0;" edge="1" parent="bhXS3MV8dKdIblBS-BVA-1" source="bhXS3MV8dKdIblBS-BVA-160" target="lXTbxmUrdeCoC9fVBDge-3">
          <mxGeometry relative="1" as="geometry">
            <Array as="points">
              <mxPoint x="240" y="920" />
              <mxPoint x="240" y="840" />
            </Array>
          </mxGeometry>
        </mxCell>
        <mxCell id="bhXS3MV8dKdIblBS-BVA-160" value="ACC_CUR" style="rounded=0;whiteSpace=wrap;html=1;fillColor=#fff2cc;strokeColor=#d6b656;" parent="bhXS3MV8dKdIblBS-BVA-1" vertex="1">
          <mxGeometry x="50" y="905" width="80" height="30" as="geometry" />
        </mxCell>
        <mxCell id="bhXS3MV8dKdIblBS-BVA-161" value="CAN0_H" style="rounded=0;whiteSpace=wrap;html=1;fillColor=#fff2cc;strokeColor=#d6b656;" parent="bhXS3MV8dKdIblBS-BVA-1" vertex="1">
          <mxGeometry x="50" y="1055" width="80" height="30" as="geometry" />
        </mxCell>
        <mxCell id="bhXS3MV8dKdIblBS-BVA-162" value="CAN0_H" style="rounded=0;whiteSpace=wrap;html=1;fillColor=#fff2cc;strokeColor=#d6b656;" parent="bhXS3MV8dKdIblBS-BVA-1" vertex="1">
          <mxGeometry x="50" y="1085" width="80" height="30" as="geometry" />
        </mxCell>
        <mxCell id="bhXS3MV8dKdIblBS-BVA-166" style="edgeStyle=orthogonalEdgeStyle;rounded=0;orthogonalLoop=1;jettySize=auto;html=1;exitX=0;exitY=0.25;exitDx=0;exitDy=0;entryX=1;entryY=0.5;entryDx=0;entryDy=0;startArrow=classic;startFill=1;strokeWidth=1;jumpStyle=arc;" parent="bhXS3MV8dKdIblBS-BVA-1" source="bhXS3MV8dKdIblBS-BVA-170" target="bhXS3MV8dKdIblBS-BVA-161" edge="1">
          <mxGeometry relative="1" as="geometry" />
        </mxCell>
        <mxCell id="bhXS3MV8dKdIblBS-BVA-167" value="CAN_5V_L" style="edgeLabel;html=1;align=center;verticalAlign=middle;resizable=0;points=[];" parent="bhXS3MV8dKdIblBS-BVA-166" vertex="1" connectable="0">
          <mxGeometry x="0.3512" y="-1" relative="1" as="geometry">
            <mxPoint as="offset" />
          </mxGeometry>
        </mxCell>
        <mxCell id="bhXS3MV8dKdIblBS-BVA-168" style="edgeStyle=orthogonalEdgeStyle;rounded=0;orthogonalLoop=1;jettySize=auto;html=1;exitX=0;exitY=0.75;exitDx=0;exitDy=0;entryX=1;entryY=0.5;entryDx=0;entryDy=0;startArrow=classic;startFill=1;strokeWidth=1;jumpStyle=arc;" parent="bhXS3MV8dKdIblBS-BVA-1" source="bhXS3MV8dKdIblBS-BVA-170" target="bhXS3MV8dKdIblBS-BVA-162" edge="1">
          <mxGeometry relative="1" as="geometry" />
        </mxCell>
        <mxCell id="bhXS3MV8dKdIblBS-BVA-169" value="CAN_5V_H" style="edgeLabel;html=1;align=center;verticalAlign=middle;resizable=0;points=[];" parent="bhXS3MV8dKdIblBS-BVA-168" vertex="1" connectable="0">
          <mxGeometry x="0.4163" y="-4" relative="1" as="geometry">
            <mxPoint x="9" y="4" as="offset" />
          </mxGeometry>
        </mxCell>
        <mxCell id="bhXS3MV8dKdIblBS-BVA-170" value="CAN Transceiver" style="rounded=0;whiteSpace=wrap;html=1;" parent="bhXS3MV8dKdIblBS-BVA-1" vertex="1">
          <mxGeometry x="361" y="1070" width="110" height="30" as="geometry" />
        </mxCell>
        <mxCell id="bhXS3MV8dKdIblBS-BVA-171" style="edgeStyle=orthogonalEdgeStyle;rounded=0;orthogonalLoop=1;jettySize=auto;html=1;exitX=0;exitY=0.5;exitDx=0;exitDy=0;entryX=1;entryY=0.5;entryDx=0;entryDy=0;startArrow=classic;startFill=1;strokeWidth=1;" parent="bhXS3MV8dKdIblBS-BVA-1" source="bhXS3MV8dKdIblBS-BVA-172" target="bhXS3MV8dKdIblBS-BVA-170" edge="1">
          <mxGeometry relative="1" as="geometry" />
        </mxCell>
        <mxCell id="bhXS3MV8dKdIblBS-BVA-172" value="CAN controller&lt;br&gt;ch0" style="rounded=0;whiteSpace=wrap;html=1;" parent="bhXS3MV8dKdIblBS-BVA-1" vertex="1">
          <mxGeometry x="621" y="1055" width="80" height="60" as="geometry" />
        </mxCell>
        <mxCell id="bhXS3MV8dKdIblBS-BVA-173" style="edgeStyle=orthogonalEdgeStyle;rounded=0;orthogonalLoop=1;jettySize=auto;html=1;exitX=0;exitY=0.5;exitDx=0;exitDy=0;entryX=1;entryY=0.5;entryDx=0;entryDy=0;startArrow=classic;startFill=1;strokeWidth=1;" parent="bhXS3MV8dKdIblBS-BVA-1" source="bhXS3MV8dKdIblBS-BVA-174" target="bhXS3MV8dKdIblBS-BVA-186" edge="1">
          <mxGeometry relative="1" as="geometry" />
        </mxCell>
        <mxCell id="bhXS3MV8dKdIblBS-BVA-174" value="CAN controller&lt;br&gt;ch1" style="rounded=0;whiteSpace=wrap;html=1;" parent="bhXS3MV8dKdIblBS-BVA-1" vertex="1">
          <mxGeometry x="621" y="1115" width="80" height="60" as="geometry" />
        </mxCell>
        <mxCell id="bhXS3MV8dKdIblBS-BVA-175" style="edgeStyle=orthogonalEdgeStyle;rounded=0;orthogonalLoop=1;jettySize=auto;html=1;exitX=0;exitY=0.5;exitDx=0;exitDy=0;entryX=1;entryY=0.5;entryDx=0;entryDy=0;startArrow=classic;startFill=1;strokeWidth=1;" parent="bhXS3MV8dKdIblBS-BVA-1" source="bhXS3MV8dKdIblBS-BVA-176" target="bhXS3MV8dKdIblBS-BVA-196" edge="1">
          <mxGeometry relative="1" as="geometry" />
        </mxCell>
        <mxCell id="bhXS3MV8dKdIblBS-BVA-176" value="CAN controller&lt;br&gt;ch2" style="rounded=0;whiteSpace=wrap;html=1;" parent="bhXS3MV8dKdIblBS-BVA-1" vertex="1">
          <mxGeometry x="621" y="1175" width="80" height="60" as="geometry" />
        </mxCell>
        <mxCell id="bhXS3MV8dKdIblBS-BVA-177" value="CAN1_H" style="rounded=0;whiteSpace=wrap;html=1;fillColor=#fff2cc;strokeColor=#d6b656;" parent="bhXS3MV8dKdIblBS-BVA-1" vertex="1">
          <mxGeometry x="50" y="1115" width="80" height="30" as="geometry" />
        </mxCell>
        <mxCell id="bhXS3MV8dKdIblBS-BVA-178" value="CAN1_H" style="rounded=0;whiteSpace=wrap;html=1;fillColor=#fff2cc;strokeColor=#d6b656;" parent="bhXS3MV8dKdIblBS-BVA-1" vertex="1">
          <mxGeometry x="50" y="1145" width="80" height="30" as="geometry" />
        </mxCell>
        <mxCell id="bhXS3MV8dKdIblBS-BVA-182" style="edgeStyle=orthogonalEdgeStyle;rounded=0;orthogonalLoop=1;jettySize=auto;html=1;exitX=0;exitY=0.25;exitDx=0;exitDy=0;entryX=1;entryY=0.5;entryDx=0;entryDy=0;startArrow=classic;startFill=1;strokeWidth=1;jumpStyle=arc;" parent="bhXS3MV8dKdIblBS-BVA-1" source="bhXS3MV8dKdIblBS-BVA-186" target="bhXS3MV8dKdIblBS-BVA-177" edge="1">
          <mxGeometry relative="1" as="geometry" />
        </mxCell>
        <mxCell id="bhXS3MV8dKdIblBS-BVA-183" value="CAN_5V_L" style="edgeLabel;html=1;align=center;verticalAlign=middle;resizable=0;points=[];" parent="bhXS3MV8dKdIblBS-BVA-182" vertex="1" connectable="0">
          <mxGeometry x="0.2862" y="1" relative="1" as="geometry">
            <mxPoint x="-9.5" y="-1" as="offset" />
          </mxGeometry>
        </mxCell>
        <mxCell id="bhXS3MV8dKdIblBS-BVA-184" style="edgeStyle=orthogonalEdgeStyle;rounded=0;orthogonalLoop=1;jettySize=auto;html=1;exitX=0;exitY=0.75;exitDx=0;exitDy=0;entryX=1;entryY=0.5;entryDx=0;entryDy=0;startArrow=classic;startFill=1;strokeWidth=1;jumpStyle=arc;" parent="bhXS3MV8dKdIblBS-BVA-1" source="bhXS3MV8dKdIblBS-BVA-186" target="bhXS3MV8dKdIblBS-BVA-178" edge="1">
          <mxGeometry relative="1" as="geometry" />
        </mxCell>
        <mxCell id="bhXS3MV8dKdIblBS-BVA-185" value="CAN_5V_H" style="edgeLabel;html=1;align=center;verticalAlign=middle;resizable=0;points=[];" parent="bhXS3MV8dKdIblBS-BVA-184" vertex="1" connectable="0">
          <mxGeometry x="0.3837" y="-1" relative="1" as="geometry">
            <mxPoint as="offset" />
          </mxGeometry>
        </mxCell>
        <mxCell id="bhXS3MV8dKdIblBS-BVA-186" value="CAN Transceiver" style="rounded=0;whiteSpace=wrap;html=1;" parent="bhXS3MV8dKdIblBS-BVA-1" vertex="1">
          <mxGeometry x="361" y="1130" width="110" height="30" as="geometry" />
        </mxCell>
        <mxCell id="bhXS3MV8dKdIblBS-BVA-187" value="CAN2_H" style="rounded=0;whiteSpace=wrap;html=1;fillColor=#fff2cc;strokeColor=#d6b656;" parent="bhXS3MV8dKdIblBS-BVA-1" vertex="1">
          <mxGeometry x="50" y="1175" width="80" height="30" as="geometry" />
        </mxCell>
        <mxCell id="bhXS3MV8dKdIblBS-BVA-188" value="CAN2_H" style="rounded=0;whiteSpace=wrap;html=1;fillColor=#fff2cc;strokeColor=#d6b656;" parent="bhXS3MV8dKdIblBS-BVA-1" vertex="1">
          <mxGeometry x="50" y="1205" width="80" height="30" as="geometry" />
        </mxCell>
        <mxCell id="bhXS3MV8dKdIblBS-BVA-192" style="edgeStyle=orthogonalEdgeStyle;rounded=0;orthogonalLoop=1;jettySize=auto;html=1;exitX=0;exitY=0.25;exitDx=0;exitDy=0;entryX=1;entryY=0.5;entryDx=0;entryDy=0;startArrow=classic;startFill=1;strokeWidth=1;jumpStyle=arc;" parent="bhXS3MV8dKdIblBS-BVA-1" source="bhXS3MV8dKdIblBS-BVA-196" target="bhXS3MV8dKdIblBS-BVA-187" edge="1">
          <mxGeometry relative="1" as="geometry" />
        </mxCell>
        <mxCell id="bhXS3MV8dKdIblBS-BVA-193" value="CAN_5V_L" style="edgeLabel;html=1;align=center;verticalAlign=middle;resizable=0;points=[];" parent="bhXS3MV8dKdIblBS-BVA-192" vertex="1" connectable="0">
          <mxGeometry x="0.3431" y="-2" relative="1" as="geometry">
            <mxPoint as="offset" />
          </mxGeometry>
        </mxCell>
        <mxCell id="bhXS3MV8dKdIblBS-BVA-194" style="edgeStyle=orthogonalEdgeStyle;rounded=0;orthogonalLoop=1;jettySize=auto;html=1;exitX=0;exitY=0.75;exitDx=0;exitDy=0;entryX=1;entryY=0.5;entryDx=0;entryDy=0;startArrow=classic;startFill=1;strokeWidth=1;jumpStyle=arc;" parent="bhXS3MV8dKdIblBS-BVA-1" source="bhXS3MV8dKdIblBS-BVA-196" target="bhXS3MV8dKdIblBS-BVA-188" edge="1">
          <mxGeometry relative="1" as="geometry" />
        </mxCell>
        <mxCell id="bhXS3MV8dKdIblBS-BVA-195" value="CAN_5V_H" style="edgeLabel;html=1;align=center;verticalAlign=middle;resizable=0;points=[];" parent="bhXS3MV8dKdIblBS-BVA-194" vertex="1" connectable="0">
          <mxGeometry x="0.335" y="-1" relative="1" as="geometry">
            <mxPoint as="offset" />
          </mxGeometry>
        </mxCell>
        <mxCell id="bhXS3MV8dKdIblBS-BVA-196" value="CAN Transceiver" style="rounded=0;whiteSpace=wrap;html=1;" parent="bhXS3MV8dKdIblBS-BVA-1" vertex="1">
          <mxGeometry x="361" y="1190" width="110" height="30" as="geometry" />
        </mxCell>
        <mxCell id="bhXS3MV8dKdIblBS-BVA-197" value="P_THERM" style="rounded=0;whiteSpace=wrap;html=1;fillColor=#fff2cc;strokeColor=#d6b656;" parent="bhXS3MV8dKdIblBS-BVA-1" vertex="1">
          <mxGeometry x="50" y="980" width="80" height="30" as="geometry" />
        </mxCell>
        <mxCell id="bhXS3MV8dKdIblBS-BVA-198" value="D_THERM" style="rounded=0;whiteSpace=wrap;html=1;fillColor=#fff2cc;strokeColor=#d6b656;" parent="bhXS3MV8dKdIblBS-BVA-1" vertex="1">
          <mxGeometry x="50" y="1010" width="80" height="30" as="geometry" />
        </mxCell>
        <mxCell id="lXTbxmUrdeCoC9fVBDge-10" style="edgeStyle=orthogonalEdgeStyle;rounded=0;orthogonalLoop=1;jettySize=auto;html=1;exitX=1;exitY=0.5;exitDx=0;exitDy=0;entryX=0;entryY=0.75;entryDx=0;entryDy=0;jumpStyle=arc;" edge="1" parent="bhXS3MV8dKdIblBS-BVA-1" source="bhXS3MV8dKdIblBS-BVA-200" target="lXTbxmUrdeCoC9fVBDge-3">
          <mxGeometry relative="1" as="geometry">
            <Array as="points">
              <mxPoint x="280" y="1365" />
              <mxPoint x="280" y="860" />
            </Array>
          </mxGeometry>
        </mxCell>
        <mxCell id="bhXS3MV8dKdIblBS-BVA-200" value="BRKF" style="rounded=0;whiteSpace=wrap;html=1;fillColor=#fff2cc;strokeColor=#d6b656;" parent="bhXS3MV8dKdIblBS-BVA-1" vertex="1">
          <mxGeometry x="50" y="1350" width="80" height="30" as="geometry" />
        </mxCell>
        <mxCell id="bhXS3MV8dKdIblBS-BVA-201" style="edgeStyle=orthogonalEdgeStyle;rounded=0;orthogonalLoop=1;jettySize=auto;html=1;exitX=1;exitY=0.5;exitDx=0;exitDy=0;startArrow=none;startFill=0;strokeWidth=1;" parent="bhXS3MV8dKdIblBS-BVA-1" source="bhXS3MV8dKdIblBS-BVA-203" target="bhXS3MV8dKdIblBS-BVA-214" edge="1">
          <mxGeometry relative="1" as="geometry" />
        </mxCell>
        <mxCell id="bhXS3MV8dKdIblBS-BVA-202" value="AIN_5V" style="edgeLabel;html=1;align=center;verticalAlign=middle;resizable=0;points=[];" parent="bhXS3MV8dKdIblBS-BVA-201" vertex="1" connectable="0">
          <mxGeometry x="-0.2675" y="1" relative="1" as="geometry">
            <mxPoint as="offset" />
          </mxGeometry>
        </mxCell>
        <mxCell id="bhXS3MV8dKdIblBS-BVA-203" value="BRKR" style="rounded=0;whiteSpace=wrap;html=1;fillColor=#fff2cc;strokeColor=#d6b656;" parent="bhXS3MV8dKdIblBS-BVA-1" vertex="1">
          <mxGeometry x="50" y="1380" width="80" height="30" as="geometry" />
        </mxCell>
        <mxCell id="bhXS3MV8dKdIblBS-BVA-208" style="edgeStyle=orthogonalEdgeStyle;rounded=0;orthogonalLoop=1;jettySize=auto;html=1;exitX=1;exitY=0.5;exitDx=0;exitDy=0;entryX=0;entryY=0.5;entryDx=0;entryDy=0;startArrow=none;startFill=0;strokeWidth=1;" parent="bhXS3MV8dKdIblBS-BVA-1" source="bhXS3MV8dKdIblBS-BVA-210" target="bhXS3MV8dKdIblBS-BVA-211" edge="1">
          <mxGeometry relative="1" as="geometry" />
        </mxCell>
        <mxCell id="bhXS3MV8dKdIblBS-BVA-209" value="AIN_3V3" style="edgeLabel;html=1;align=center;verticalAlign=middle;resizable=0;points=[];" parent="bhXS3MV8dKdIblBS-BVA-208" vertex="1" connectable="0">
          <mxGeometry x="-0.2453" y="2" relative="1" as="geometry">
            <mxPoint as="offset" />
          </mxGeometry>
        </mxCell>
        <mxCell id="bhXS3MV8dKdIblBS-BVA-210" value="AIN Buffer/level converter" style="rounded=0;whiteSpace=wrap;html=1;" parent="bhXS3MV8dKdIblBS-BVA-1" vertex="1">
          <mxGeometry x="361" y="1350" width="110" height="30" as="geometry" />
        </mxCell>
        <mxCell id="bhXS3MV8dKdIblBS-BVA-211" value="ADC" style="rounded=0;whiteSpace=wrap;html=1;" parent="bhXS3MV8dKdIblBS-BVA-1" vertex="1">
          <mxGeometry x="621" y="1350" width="80" height="30" as="geometry" />
        </mxCell>
        <mxCell id="bhXS3MV8dKdIblBS-BVA-212" style="edgeStyle=orthogonalEdgeStyle;rounded=0;orthogonalLoop=1;jettySize=auto;html=1;exitX=1;exitY=0.5;exitDx=0;exitDy=0;entryX=0;entryY=0.5;entryDx=0;entryDy=0;startArrow=none;startFill=0;strokeWidth=1;" parent="bhXS3MV8dKdIblBS-BVA-1" source="bhXS3MV8dKdIblBS-BVA-214" target="bhXS3MV8dKdIblBS-BVA-215" edge="1">
          <mxGeometry relative="1" as="geometry" />
        </mxCell>
        <mxCell id="bhXS3MV8dKdIblBS-BVA-213" value="AIN_3V3" style="edgeLabel;html=1;align=center;verticalAlign=middle;resizable=0;points=[];" parent="bhXS3MV8dKdIblBS-BVA-212" vertex="1" connectable="0">
          <mxGeometry x="-0.3253" y="1" relative="1" as="geometry">
            <mxPoint as="offset" />
          </mxGeometry>
        </mxCell>
        <mxCell id="bhXS3MV8dKdIblBS-BVA-214" value="AIN Buffer/level converter" style="rounded=0;whiteSpace=wrap;html=1;" parent="bhXS3MV8dKdIblBS-BVA-1" vertex="1">
          <mxGeometry x="361" y="1380" width="110" height="30" as="geometry" />
        </mxCell>
        <mxCell id="bhXS3MV8dKdIblBS-BVA-215" value="ADC" style="rounded=0;whiteSpace=wrap;html=1;" parent="bhXS3MV8dKdIblBS-BVA-1" vertex="1">
          <mxGeometry x="621" y="1380" width="80" height="30" as="geometry" />
        </mxCell>
        <mxCell id="bhXS3MV8dKdIblBS-BVA-216" style="edgeStyle=orthogonalEdgeStyle;rounded=0;orthogonalLoop=1;jettySize=auto;html=1;exitX=1;exitY=0.5;exitDx=0;exitDy=0;entryX=0;entryY=0.5;entryDx=0;entryDy=0;startArrow=none;startFill=0;strokeWidth=1;" parent="bhXS3MV8dKdIblBS-BVA-1" source="bhXS3MV8dKdIblBS-BVA-218" target="bhXS3MV8dKdIblBS-BVA-228" edge="1">
          <mxGeometry relative="1" as="geometry" />
        </mxCell>
        <mxCell id="bhXS3MV8dKdIblBS-BVA-217" value="AIN_5V" style="edgeLabel;html=1;align=center;verticalAlign=middle;resizable=0;points=[];" parent="bhXS3MV8dKdIblBS-BVA-216" vertex="1" connectable="0">
          <mxGeometry x="-0.2329" relative="1" as="geometry">
            <mxPoint as="offset" />
          </mxGeometry>
        </mxCell>
        <mxCell id="bhXS3MV8dKdIblBS-BVA-218" value="THRTL_1" style="rounded=0;whiteSpace=wrap;html=1;fillColor=#fff2cc;strokeColor=#d6b656;" parent="bhXS3MV8dKdIblBS-BVA-1" vertex="1">
          <mxGeometry x="50" y="1410" width="80" height="30" as="geometry" />
        </mxCell>
        <mxCell id="bhXS3MV8dKdIblBS-BVA-219" style="edgeStyle=orthogonalEdgeStyle;rounded=0;orthogonalLoop=1;jettySize=auto;html=1;exitX=1;exitY=0.5;exitDx=0;exitDy=0;startArrow=none;startFill=0;strokeWidth=1;" parent="bhXS3MV8dKdIblBS-BVA-1" source="bhXS3MV8dKdIblBS-BVA-221" target="bhXS3MV8dKdIblBS-BVA-232" edge="1">
          <mxGeometry relative="1" as="geometry" />
        </mxCell>
        <mxCell id="bhXS3MV8dKdIblBS-BVA-220" value="AIN_5V" style="edgeLabel;html=1;align=center;verticalAlign=middle;resizable=0;points=[];" parent="bhXS3MV8dKdIblBS-BVA-219" vertex="1" connectable="0">
          <mxGeometry x="-0.2329" y="1" relative="1" as="geometry">
            <mxPoint as="offset" />
          </mxGeometry>
        </mxCell>
        <mxCell id="bhXS3MV8dKdIblBS-BVA-221" value="THRTL_2" style="rounded=0;whiteSpace=wrap;html=1;fillColor=#fff2cc;strokeColor=#d6b656;" parent="bhXS3MV8dKdIblBS-BVA-1" vertex="1">
          <mxGeometry x="50" y="1440" width="80" height="30" as="geometry" />
        </mxCell>
        <mxCell id="bhXS3MV8dKdIblBS-BVA-226" style="edgeStyle=orthogonalEdgeStyle;rounded=0;orthogonalLoop=1;jettySize=auto;html=1;exitX=1;exitY=0.5;exitDx=0;exitDy=0;entryX=0;entryY=0.5;entryDx=0;entryDy=0;startArrow=none;startFill=0;strokeWidth=1;" parent="bhXS3MV8dKdIblBS-BVA-1" source="bhXS3MV8dKdIblBS-BVA-228" target="bhXS3MV8dKdIblBS-BVA-229" edge="1">
          <mxGeometry relative="1" as="geometry" />
        </mxCell>
        <mxCell id="bhXS3MV8dKdIblBS-BVA-227" value="AIN_3V3" style="edgeLabel;html=1;align=center;verticalAlign=middle;resizable=0;points=[];" parent="bhXS3MV8dKdIblBS-BVA-226" vertex="1" connectable="0">
          <mxGeometry x="-0.232" y="-1" relative="1" as="geometry">
            <mxPoint as="offset" />
          </mxGeometry>
        </mxCell>
        <mxCell id="bhXS3MV8dKdIblBS-BVA-228" value="AIN Buffer/level converter" style="rounded=0;whiteSpace=wrap;html=1;" parent="bhXS3MV8dKdIblBS-BVA-1" vertex="1">
          <mxGeometry x="361" y="1410" width="110" height="30" as="geometry" />
        </mxCell>
        <mxCell id="bhXS3MV8dKdIblBS-BVA-229" value="ADC" style="rounded=0;whiteSpace=wrap;html=1;" parent="bhXS3MV8dKdIblBS-BVA-1" vertex="1">
          <mxGeometry x="621" y="1410" width="80" height="30" as="geometry" />
        </mxCell>
        <mxCell id="bhXS3MV8dKdIblBS-BVA-230" style="edgeStyle=orthogonalEdgeStyle;rounded=0;orthogonalLoop=1;jettySize=auto;html=1;exitX=1;exitY=0.5;exitDx=0;exitDy=0;entryX=0;entryY=0.5;entryDx=0;entryDy=0;startArrow=none;startFill=0;strokeWidth=1;" parent="bhXS3MV8dKdIblBS-BVA-1" source="bhXS3MV8dKdIblBS-BVA-232" target="bhXS3MV8dKdIblBS-BVA-233" edge="1">
          <mxGeometry relative="1" as="geometry" />
        </mxCell>
        <mxCell id="bhXS3MV8dKdIblBS-BVA-231" value="AIN_3V3" style="edgeLabel;html=1;align=center;verticalAlign=middle;resizable=0;points=[];" parent="bhXS3MV8dKdIblBS-BVA-230" vertex="1" connectable="0">
          <mxGeometry x="-0.2587" y="1" relative="1" as="geometry">
            <mxPoint as="offset" />
          </mxGeometry>
        </mxCell>
        <mxCell id="bhXS3MV8dKdIblBS-BVA-232" value="AIN Buffer/level converter" style="rounded=0;whiteSpace=wrap;html=1;" parent="bhXS3MV8dKdIblBS-BVA-1" vertex="1">
          <mxGeometry x="361" y="1440" width="110" height="30" as="geometry" />
        </mxCell>
        <mxCell id="bhXS3MV8dKdIblBS-BVA-233" value="ADC" style="rounded=0;whiteSpace=wrap;html=1;" parent="bhXS3MV8dKdIblBS-BVA-1" vertex="1">
          <mxGeometry x="621" y="1440" width="80" height="30" as="geometry" />
        </mxCell>
        <mxCell id="bhXS3MV8dKdIblBS-BVA-234" value="GPIO in" style="rounded=0;whiteSpace=wrap;html=1;labelBackgroundColor=#ffffff;" parent="bhXS3MV8dKdIblBS-BVA-1" vertex="1">
          <mxGeometry x="621" y="1490" width="80" height="30" as="geometry" />
        </mxCell>
        <mxCell id="bhXS3MV8dKdIblBS-BVA-235" style="edgeStyle=orthogonalEdgeStyle;rounded=0;orthogonalLoop=1;jettySize=auto;html=1;exitX=1;exitY=0.5;exitDx=0;exitDy=0;entryX=0;entryY=0.5;entryDx=0;entryDy=0;startArrow=none;startFill=0;strokeWidth=1;" parent="bhXS3MV8dKdIblBS-BVA-1" source="bhXS3MV8dKdIblBS-BVA-237" target="bhXS3MV8dKdIblBS-BVA-234" edge="1">
          <mxGeometry relative="1" as="geometry" />
        </mxCell>
        <mxCell id="bhXS3MV8dKdIblBS-BVA-236" value="DIN_3.3V" style="edgeLabel;html=1;align=center;verticalAlign=middle;resizable=0;points=[];" parent="bhXS3MV8dKdIblBS-BVA-235" vertex="1" connectable="0">
          <mxGeometry x="-0.272" y="-2" relative="1" as="geometry">
            <mxPoint x="5" y="-2" as="offset" />
          </mxGeometry>
        </mxCell>
        <mxCell id="bhXS3MV8dKdIblBS-BVA-237" value="DIN level step down" style="rounded=0;whiteSpace=wrap;html=1;" parent="bhXS3MV8dKdIblBS-BVA-1" vertex="1">
          <mxGeometry x="361" y="1490" width="110" height="30" as="geometry" />
        </mxCell>
        <mxCell id="bhXS3MV8dKdIblBS-BVA-238" style="edgeStyle=orthogonalEdgeStyle;rounded=0;orthogonalLoop=1;jettySize=auto;html=1;exitX=1;exitY=0.5;exitDx=0;exitDy=0;entryX=0;entryY=0.5;entryDx=0;entryDy=0;startArrow=none;startFill=0;strokeWidth=1;" parent="bhXS3MV8dKdIblBS-BVA-1" source="bhXS3MV8dKdIblBS-BVA-240" target="bhXS3MV8dKdIblBS-BVA-237" edge="1">
          <mxGeometry relative="1" as="geometry" />
        </mxCell>
        <mxCell id="bhXS3MV8dKdIblBS-BVA-239" value="DIN_24V" style="edgeLabel;html=1;align=center;verticalAlign=middle;resizable=0;points=[];" parent="bhXS3MV8dKdIblBS-BVA-238" vertex="1" connectable="0">
          <mxGeometry x="-0.3195" y="-1" relative="1" as="geometry">
            <mxPoint x="12" y="-1" as="offset" />
          </mxGeometry>
        </mxCell>
        <mxCell id="bhXS3MV8dKdIblBS-BVA-240" value="START_B" style="rounded=0;whiteSpace=wrap;html=1;fillColor=#fff2cc;strokeColor=#d6b656;" parent="bhXS3MV8dKdIblBS-BVA-1" vertex="1">
          <mxGeometry x="50" y="1490" width="80" height="30" as="geometry" />
        </mxCell>
        <mxCell id="bhXS3MV8dKdIblBS-BVA-241" style="edgeStyle=orthogonalEdgeStyle;rounded=0;orthogonalLoop=1;jettySize=auto;html=1;exitX=0;exitY=0.5;exitDx=0;exitDy=0;entryX=1;entryY=0.5;entryDx=0;entryDy=0;" parent="bhXS3MV8dKdIblBS-BVA-1" source="bhXS3MV8dKdIblBS-BVA-243" target="bhXS3MV8dKdIblBS-BVA-246" edge="1">
          <mxGeometry relative="1" as="geometry" />
        </mxCell>
        <mxCell id="bhXS3MV8dKdIblBS-BVA-242" value="DOUT_3.3V" style="edgeLabel;html=1;align=center;verticalAlign=middle;resizable=0;points=[];" parent="bhXS3MV8dKdIblBS-BVA-241" vertex="1" connectable="0">
          <mxGeometry x="0.3232" y="-2" relative="1" as="geometry">
            <mxPoint x="9.31" y="2" as="offset" />
          </mxGeometry>
        </mxCell>
        <mxCell id="bhXS3MV8dKdIblBS-BVA-243" value="GPIO out" style="rounded=0;whiteSpace=wrap;html=1;labelBackgroundColor=#ffffff;" parent="bhXS3MV8dKdIblBS-BVA-1" vertex="1">
          <mxGeometry x="621" y="1520" width="80" height="30" as="geometry" />
        </mxCell>
        <mxCell id="bhXS3MV8dKdIblBS-BVA-244" style="edgeStyle=orthogonalEdgeStyle;rounded=0;orthogonalLoop=1;jettySize=auto;html=1;exitX=0;exitY=0.5;exitDx=0;exitDy=0;entryX=1;entryY=0.5;entryDx=0;entryDy=0;" parent="bhXS3MV8dKdIblBS-BVA-1" source="bhXS3MV8dKdIblBS-BVA-246" target="bhXS3MV8dKdIblBS-BVA-247" edge="1">
          <mxGeometry relative="1" as="geometry" />
        </mxCell>
        <mxCell id="bhXS3MV8dKdIblBS-BVA-245" value="DOUT_LED" style="edgeLabel;html=1;align=center;verticalAlign=middle;resizable=0;points=[];" parent="bhXS3MV8dKdIblBS-BVA-244" vertex="1" connectable="0">
          <mxGeometry x="0.3071" relative="1" as="geometry">
            <mxPoint x="11.03" as="offset" />
          </mxGeometry>
        </mxCell>
        <mxCell id="bhXS3MV8dKdIblBS-BVA-246" value="DOUT LED Driver" style="rounded=0;whiteSpace=wrap;html=1;" parent="bhXS3MV8dKdIblBS-BVA-1" vertex="1">
          <mxGeometry x="361" y="1520" width="110" height="30" as="geometry" />
        </mxCell>
        <mxCell id="bhXS3MV8dKdIblBS-BVA-247" value="START_L" style="rounded=0;whiteSpace=wrap;html=1;fillColor=#fff2cc;strokeColor=#d6b656;" parent="bhXS3MV8dKdIblBS-BVA-1" vertex="1">
          <mxGeometry x="50" y="1520" width="80" height="30" as="geometry" />
        </mxCell>
        <mxCell id="bhXS3MV8dKdIblBS-BVA-248" value="GPIO in" style="rounded=0;whiteSpace=wrap;html=1;labelBackgroundColor=#ffffff;" parent="bhXS3MV8dKdIblBS-BVA-1" vertex="1">
          <mxGeometry x="621" y="1550" width="80" height="30" as="geometry" />
        </mxCell>
        <mxCell id="bhXS3MV8dKdIblBS-BVA-249" style="edgeStyle=orthogonalEdgeStyle;rounded=0;orthogonalLoop=1;jettySize=auto;html=1;exitX=1;exitY=0.5;exitDx=0;exitDy=0;entryX=0;entryY=0.5;entryDx=0;entryDy=0;startArrow=none;startFill=0;strokeWidth=1;" parent="bhXS3MV8dKdIblBS-BVA-1" source="bhXS3MV8dKdIblBS-BVA-251" target="bhXS3MV8dKdIblBS-BVA-248" edge="1">
          <mxGeometry relative="1" as="geometry" />
        </mxCell>
        <mxCell id="bhXS3MV8dKdIblBS-BVA-250" value="DIN_3.3V" style="edgeLabel;html=1;align=center;verticalAlign=middle;resizable=0;points=[];" parent="bhXS3MV8dKdIblBS-BVA-249" vertex="1" connectable="0">
          <mxGeometry x="-0.2987" y="2" relative="1" as="geometry">
            <mxPoint as="offset" />
          </mxGeometry>
        </mxCell>
        <mxCell id="bhXS3MV8dKdIblBS-BVA-251" value="DIN level step down" style="rounded=0;whiteSpace=wrap;html=1;" parent="bhXS3MV8dKdIblBS-BVA-1" vertex="1">
          <mxGeometry x="361" y="1550" width="110" height="30" as="geometry" />
        </mxCell>
        <mxCell id="bhXS3MV8dKdIblBS-BVA-252" style="edgeStyle=orthogonalEdgeStyle;rounded=0;orthogonalLoop=1;jettySize=auto;html=1;exitX=1;exitY=0.5;exitDx=0;exitDy=0;entryX=0;entryY=0.5;entryDx=0;entryDy=0;startArrow=none;startFill=0;strokeWidth=1;" parent="bhXS3MV8dKdIblBS-BVA-1" source="bhXS3MV8dKdIblBS-BVA-254" target="bhXS3MV8dKdIblBS-BVA-251" edge="1">
          <mxGeometry relative="1" as="geometry" />
        </mxCell>
        <mxCell id="bhXS3MV8dKdIblBS-BVA-253" value="DIN_24V" style="edgeLabel;html=1;align=center;verticalAlign=middle;resizable=0;points=[];" parent="bhXS3MV8dKdIblBS-BVA-252" vertex="1" connectable="0">
          <mxGeometry x="-0.2354" y="-2" relative="1" as="geometry">
            <mxPoint as="offset" />
          </mxGeometry>
        </mxCell>
        <mxCell id="bhXS3MV8dKdIblBS-BVA-254" value="WS_F" style="rounded=0;whiteSpace=wrap;html=1;fillColor=#fff2cc;strokeColor=#d6b656;" parent="bhXS3MV8dKdIblBS-BVA-1" vertex="1">
          <mxGeometry x="50" y="1550" width="80" height="30" as="geometry" />
        </mxCell>
        <mxCell id="bhXS3MV8dKdIblBS-BVA-255" value="GPIO in" style="rounded=0;whiteSpace=wrap;html=1;labelBackgroundColor=#ffffff;" parent="bhXS3MV8dKdIblBS-BVA-1" vertex="1">
          <mxGeometry x="621" y="1580" width="80" height="30" as="geometry" />
        </mxCell>
        <mxCell id="bhXS3MV8dKdIblBS-BVA-256" style="edgeStyle=orthogonalEdgeStyle;rounded=0;orthogonalLoop=1;jettySize=auto;html=1;exitX=1;exitY=0.5;exitDx=0;exitDy=0;entryX=0;entryY=0.5;entryDx=0;entryDy=0;startArrow=none;startFill=0;strokeWidth=1;" parent="bhXS3MV8dKdIblBS-BVA-1" source="bhXS3MV8dKdIblBS-BVA-258" target="bhXS3MV8dKdIblBS-BVA-255" edge="1">
          <mxGeometry relative="1" as="geometry" />
        </mxCell>
        <mxCell id="bhXS3MV8dKdIblBS-BVA-257" value="DIN_3.3V" style="edgeLabel;html=1;align=center;verticalAlign=middle;resizable=0;points=[];" parent="bhXS3MV8dKdIblBS-BVA-256" vertex="1" connectable="0">
          <mxGeometry x="-0.1485" y="2" relative="1" as="geometry">
            <mxPoint as="offset" />
          </mxGeometry>
        </mxCell>
        <mxCell id="bhXS3MV8dKdIblBS-BVA-258" value="DIN level step down" style="rounded=0;whiteSpace=wrap;html=1;" parent="bhXS3MV8dKdIblBS-BVA-1" vertex="1">
          <mxGeometry x="361" y="1580" width="110" height="30" as="geometry" />
        </mxCell>
        <mxCell id="bhXS3MV8dKdIblBS-BVA-259" style="edgeStyle=orthogonalEdgeStyle;rounded=0;orthogonalLoop=1;jettySize=auto;html=1;exitX=1;exitY=0.5;exitDx=0;exitDy=0;entryX=0;entryY=0.5;entryDx=0;entryDy=0;startArrow=none;startFill=0;strokeWidth=1;" parent="bhXS3MV8dKdIblBS-BVA-1" source="bhXS3MV8dKdIblBS-BVA-261" target="bhXS3MV8dKdIblBS-BVA-258" edge="1">
          <mxGeometry relative="1" as="geometry" />
        </mxCell>
        <mxCell id="bhXS3MV8dKdIblBS-BVA-260" value="DIN_24V" style="edgeLabel;html=1;align=center;verticalAlign=middle;resizable=0;points=[];" parent="bhXS3MV8dKdIblBS-BVA-259" vertex="1" connectable="0">
          <mxGeometry x="-0.2294" y="-2" relative="1" as="geometry">
            <mxPoint as="offset" />
          </mxGeometry>
        </mxCell>
        <mxCell id="bhXS3MV8dKdIblBS-BVA-261" value="WS_R" style="rounded=0;whiteSpace=wrap;html=1;fillColor=#fff2cc;strokeColor=#d6b656;" parent="bhXS3MV8dKdIblBS-BVA-1" vertex="1">
          <mxGeometry x="50" y="1580" width="80" height="30" as="geometry" />
        </mxCell>
        <mxCell id="bhXS3MV8dKdIblBS-BVA-266" style="edgeStyle=orthogonalEdgeStyle;rounded=0;orthogonalLoop=1;jettySize=auto;html=1;exitX=1;exitY=0.5;exitDx=0;exitDy=0;startArrow=classic;startFill=1;strokeWidth=1;entryX=0;entryY=0.5;entryDx=0;entryDy=0;" parent="bhXS3MV8dKdIblBS-BVA-1" source="bhXS3MV8dKdIblBS-BVA-268" target="Zc1lBWjNl7q6e84oyqTN-31" edge="1">
          <mxGeometry relative="1" as="geometry">
            <mxPoint x="361.77" y="1725.7600000000002" as="targetPoint" />
            <Array as="points" />
          </mxGeometry>
        </mxCell>
        <mxCell id="bhXS3MV8dKdIblBS-BVA-267" value="MPIO_5V" style="edgeLabel;html=1;align=center;verticalAlign=middle;resizable=0;points=[];" parent="bhXS3MV8dKdIblBS-BVA-266" vertex="1" connectable="0">
          <mxGeometry x="-0.4996" y="3" relative="1" as="geometry">
            <mxPoint x="-8" y="3" as="offset" />
          </mxGeometry>
        </mxCell>
        <mxCell id="bhXS3MV8dKdIblBS-BVA-268" value="MPIO8" style="rounded=0;whiteSpace=wrap;html=1;fillColor=#fff2cc;strokeColor=#d6b656;" parent="bhXS3MV8dKdIblBS-BVA-1" vertex="1">
          <mxGeometry x="50" y="1660" width="80" height="30" as="geometry" />
        </mxCell>
        <mxCell id="bhXS3MV8dKdIblBS-BVA-269" style="edgeStyle=orthogonalEdgeStyle;rounded=0;orthogonalLoop=1;jettySize=auto;html=1;exitX=1;exitY=0.5;exitDx=0;exitDy=0;startArrow=classic;startFill=1;strokeWidth=1;entryX=0;entryY=0.5;entryDx=0;entryDy=0;" parent="bhXS3MV8dKdIblBS-BVA-1" source="bhXS3MV8dKdIblBS-BVA-271" target="Zc1lBWjNl7q6e84oyqTN-23" edge="1">
          <mxGeometry relative="1" as="geometry">
            <mxPoint x="330" y="1750" as="targetPoint" />
          </mxGeometry>
        </mxCell>
        <mxCell id="bhXS3MV8dKdIblBS-BVA-270" value="MPIO_5V" style="edgeLabel;html=1;align=center;verticalAlign=middle;resizable=0;points=[];" parent="bhXS3MV8dKdIblBS-BVA-269" vertex="1" connectable="0">
          <mxGeometry x="-0.2084" y="-1" relative="1" as="geometry">
            <mxPoint x="1" as="offset" />
          </mxGeometry>
        </mxCell>
        <mxCell id="bhXS3MV8dKdIblBS-BVA-271" value="MPIO7" style="rounded=0;whiteSpace=wrap;html=1;fillColor=#fff2cc;strokeColor=#d6b656;" parent="bhXS3MV8dKdIblBS-BVA-1" vertex="1">
          <mxGeometry x="50" y="1739" width="80" height="30" as="geometry" />
        </mxCell>
        <mxCell id="bhXS3MV8dKdIblBS-BVA-272" style="edgeStyle=orthogonalEdgeStyle;rounded=0;orthogonalLoop=1;jettySize=auto;html=1;exitX=1;exitY=0.5;exitDx=0;exitDy=0;startArrow=classic;startFill=1;strokeWidth=1;entryX=0;entryY=0.5;entryDx=0;entryDy=0;" parent="bhXS3MV8dKdIblBS-BVA-1" source="bhXS3MV8dKdIblBS-BVA-274" target="Zc1lBWjNl7q6e84oyqTN-26" edge="1">
          <mxGeometry relative="1" as="geometry">
            <mxPoint x="310" y="1785" as="targetPoint" />
          </mxGeometry>
        </mxCell>
        <mxCell id="bhXS3MV8dKdIblBS-BVA-273" value="MPIO_5V" style="edgeLabel;html=1;align=center;verticalAlign=middle;resizable=0;points=[];" parent="bhXS3MV8dKdIblBS-BVA-272" vertex="1" connectable="0">
          <mxGeometry x="-0.2277" y="2" relative="1" as="geometry">
            <mxPoint as="offset" />
          </mxGeometry>
        </mxCell>
        <mxCell id="bhXS3MV8dKdIblBS-BVA-274" value="MPIO5" style="rounded=0;whiteSpace=wrap;html=1;fillColor=#fff2cc;strokeColor=#d6b656;" parent="bhXS3MV8dKdIblBS-BVA-1" vertex="1">
          <mxGeometry x="50" y="1770" width="80" height="30" as="geometry" />
        </mxCell>
        <mxCell id="bhXS3MV8dKdIblBS-BVA-275" style="edgeStyle=orthogonalEdgeStyle;rounded=0;orthogonalLoop=1;jettySize=auto;html=1;exitX=1;exitY=0.5;exitDx=0;exitDy=0;startArrow=classic;startFill=1;strokeWidth=1;entryX=0;entryY=0.5;entryDx=0;entryDy=0;" parent="bhXS3MV8dKdIblBS-BVA-1" source="bhXS3MV8dKdIblBS-BVA-277" target="Zc1lBWjNl7q6e84oyqTN-27" edge="1">
          <mxGeometry relative="1" as="geometry">
            <mxPoint x="300" y="1810" as="targetPoint" />
          </mxGeometry>
        </mxCell>
        <mxCell id="bhXS3MV8dKdIblBS-BVA-276" value="MPIO_5V" style="edgeLabel;html=1;align=center;verticalAlign=middle;resizable=0;points=[];" parent="bhXS3MV8dKdIblBS-BVA-275" vertex="1" connectable="0">
          <mxGeometry x="-0.1885" y="1" relative="1" as="geometry">
            <mxPoint as="offset" />
          </mxGeometry>
        </mxCell>
        <mxCell id="bhXS3MV8dKdIblBS-BVA-277" value="MPIO4" style="rounded=0;whiteSpace=wrap;html=1;fillColor=#fff2cc;strokeColor=#d6b656;" parent="bhXS3MV8dKdIblBS-BVA-1" vertex="1">
          <mxGeometry x="50" y="1800" width="80" height="30" as="geometry" />
        </mxCell>
        <mxCell id="bhXS3MV8dKdIblBS-BVA-278" style="edgeStyle=orthogonalEdgeStyle;rounded=0;orthogonalLoop=1;jettySize=auto;html=1;exitX=1;exitY=0.5;exitDx=0;exitDy=0;startArrow=classic;startFill=1;strokeWidth=1;entryX=0;entryY=0.5;entryDx=0;entryDy=0;" parent="bhXS3MV8dKdIblBS-BVA-1" source="bhXS3MV8dKdIblBS-BVA-280" target="Zc1lBWjNl7q6e84oyqTN-28" edge="1">
          <mxGeometry relative="1" as="geometry">
            <mxPoint x="361" y="1845.7600000000002" as="targetPoint" />
          </mxGeometry>
        </mxCell>
        <mxCell id="bhXS3MV8dKdIblBS-BVA-279" value="MPIO_5V" style="edgeLabel;html=1;align=center;verticalAlign=middle;resizable=0;points=[];" parent="bhXS3MV8dKdIblBS-BVA-278" vertex="1" connectable="0">
          <mxGeometry x="-0.2045" relative="1" as="geometry">
            <mxPoint as="offset" />
          </mxGeometry>
        </mxCell>
        <mxCell id="bhXS3MV8dKdIblBS-BVA-280" value="MPIO3" style="rounded=0;whiteSpace=wrap;html=1;fillColor=#fff2cc;strokeColor=#d6b656;" parent="bhXS3MV8dKdIblBS-BVA-1" vertex="1">
          <mxGeometry x="50" y="1830" width="80" height="30" as="geometry" />
        </mxCell>
        <mxCell id="bhXS3MV8dKdIblBS-BVA-281" value="BMS_ERR" style="rounded=0;whiteSpace=wrap;html=1;fillColor=#fff2cc;strokeColor=#d6b656;" parent="bhXS3MV8dKdIblBS-BVA-1" vertex="1">
          <mxGeometry x="50" y="875" width="80" height="30" as="geometry" />
        </mxCell>
        <mxCell id="bhXS3MV8dKdIblBS-BVA-283" style="edgeStyle=orthogonalEdgeStyle;rounded=0;orthogonalLoop=1;jettySize=auto;html=1;exitX=1;exitY=0.5;exitDx=0;exitDy=0;startArrow=classic;startFill=1;strokeWidth=1;entryX=0;entryY=0.5;entryDx=0;entryDy=0;" parent="bhXS3MV8dKdIblBS-BVA-1" source="bhXS3MV8dKdIblBS-BVA-285" target="Zc1lBWjNl7q6e84oyqTN-29" edge="1">
          <mxGeometry relative="1" as="geometry">
            <mxPoint x="310" y="1870" as="targetPoint" />
          </mxGeometry>
        </mxCell>
        <mxCell id="bhXS3MV8dKdIblBS-BVA-284" value="MPIO_5V" style="edgeLabel;html=1;align=center;verticalAlign=middle;resizable=0;points=[];" parent="bhXS3MV8dKdIblBS-BVA-283" vertex="1" connectable="0">
          <mxGeometry x="-0.223" relative="1" as="geometry">
            <mxPoint as="offset" />
          </mxGeometry>
        </mxCell>
        <mxCell id="bhXS3MV8dKdIblBS-BVA-285" value="MPIO2" style="rounded=0;whiteSpace=wrap;html=1;fillColor=#fff2cc;strokeColor=#d6b656;" parent="bhXS3MV8dKdIblBS-BVA-1" vertex="1">
          <mxGeometry x="50" y="1860" width="80" height="30" as="geometry" />
        </mxCell>
        <mxCell id="bhXS3MV8dKdIblBS-BVA-286" style="edgeStyle=orthogonalEdgeStyle;rounded=0;orthogonalLoop=1;jettySize=auto;html=1;exitX=1;exitY=0.5;exitDx=0;exitDy=0;startArrow=classic;startFill=1;strokeWidth=1;entryX=0;entryY=0.5;entryDx=0;entryDy=0;" parent="bhXS3MV8dKdIblBS-BVA-1" source="bhXS3MV8dKdIblBS-BVA-288" target="Zc1lBWjNl7q6e84oyqTN-30" edge="1">
          <mxGeometry relative="1" as="geometry">
            <mxPoint x="330" y="1910" as="targetPoint" />
          </mxGeometry>
        </mxCell>
        <mxCell id="bhXS3MV8dKdIblBS-BVA-287" value="MPIO_5V" style="edgeLabel;html=1;align=center;verticalAlign=middle;resizable=0;points=[];" parent="bhXS3MV8dKdIblBS-BVA-286" vertex="1" connectable="0">
          <mxGeometry x="-0.2365" y="1" relative="1" as="geometry">
            <mxPoint as="offset" />
          </mxGeometry>
        </mxCell>
        <mxCell id="bhXS3MV8dKdIblBS-BVA-288" value="MPIO1" style="rounded=0;whiteSpace=wrap;html=1;fillColor=#fff2cc;strokeColor=#d6b656;" parent="bhXS3MV8dKdIblBS-BVA-1" vertex="1">
          <mxGeometry x="50" y="1890" width="80" height="30" as="geometry" />
        </mxCell>
        <mxCell id="bhXS3MV8dKdIblBS-BVA-289" style="edgeStyle=orthogonalEdgeStyle;rounded=0;orthogonalLoop=1;jettySize=auto;html=1;exitX=1;exitY=0.5;exitDx=0;exitDy=0;entryX=0;entryY=0.25;entryDx=0;entryDy=0;startArrow=none;startFill=0;strokeWidth=1;" parent="bhXS3MV8dKdIblBS-BVA-1" source="bhXS3MV8dKdIblBS-BVA-291" target="bhXS3MV8dKdIblBS-BVA-297" edge="1">
          <mxGeometry relative="1" as="geometry" />
        </mxCell>
        <mxCell id="bhXS3MV8dKdIblBS-BVA-290" value="RS232_RX" style="edgeLabel;html=1;align=center;verticalAlign=middle;resizable=0;points=[];" parent="bhXS3MV8dKdIblBS-BVA-289" vertex="1" connectable="0">
          <mxGeometry x="-0.3459" y="-3" relative="1" as="geometry">
            <mxPoint as="offset" />
          </mxGeometry>
        </mxCell>
        <mxCell id="bhXS3MV8dKdIblBS-BVA-291" value="RS232_RX" style="rounded=0;whiteSpace=wrap;html=1;fillColor=#fff2cc;strokeColor=#d6b656;" parent="bhXS3MV8dKdIblBS-BVA-1" vertex="1">
          <mxGeometry x="50" y="1940" width="80" height="30" as="geometry" />
        </mxCell>
        <mxCell id="bhXS3MV8dKdIblBS-BVA-292" value="RS232_TX" style="rounded=0;whiteSpace=wrap;html=1;fillColor=#fff2cc;strokeColor=#d6b656;" parent="bhXS3MV8dKdIblBS-BVA-1" vertex="1">
          <mxGeometry x="50" y="1970" width="80" height="30" as="geometry" />
        </mxCell>
        <mxCell id="bhXS3MV8dKdIblBS-BVA-293" style="edgeStyle=orthogonalEdgeStyle;rounded=0;orthogonalLoop=1;jettySize=auto;html=1;exitX=1;exitY=0.25;exitDx=0;exitDy=0;entryX=0;entryY=0.25;entryDx=0;entryDy=0;startArrow=none;startFill=0;strokeWidth=1;" parent="bhXS3MV8dKdIblBS-BVA-1" source="bhXS3MV8dKdIblBS-BVA-297" target="bhXS3MV8dKdIblBS-BVA-300" edge="1">
          <mxGeometry relative="1" as="geometry" />
        </mxCell>
        <mxCell id="bhXS3MV8dKdIblBS-BVA-294" value="UART_RX" style="edgeLabel;html=1;align=center;verticalAlign=middle;resizable=0;points=[];" parent="bhXS3MV8dKdIblBS-BVA-293" vertex="1" connectable="0">
          <mxGeometry x="-0.2933" y="4" relative="1" as="geometry">
            <mxPoint as="offset" />
          </mxGeometry>
        </mxCell>
        <mxCell id="bhXS3MV8dKdIblBS-BVA-295" style="edgeStyle=orthogonalEdgeStyle;rounded=0;orthogonalLoop=1;jettySize=auto;html=1;exitX=0;exitY=0.75;exitDx=0;exitDy=0;entryX=1;entryY=0.5;entryDx=0;entryDy=0;startArrow=none;startFill=0;strokeWidth=1;" parent="bhXS3MV8dKdIblBS-BVA-1" source="bhXS3MV8dKdIblBS-BVA-297" target="bhXS3MV8dKdIblBS-BVA-292" edge="1">
          <mxGeometry relative="1" as="geometry" />
        </mxCell>
        <mxCell id="bhXS3MV8dKdIblBS-BVA-296" value="RS232_TX" style="edgeLabel;html=1;align=center;verticalAlign=middle;resizable=0;points=[];" parent="bhXS3MV8dKdIblBS-BVA-295" vertex="1" connectable="0">
          <mxGeometry x="0.4214" y="-2" relative="1" as="geometry">
            <mxPoint x="10" y="2" as="offset" />
          </mxGeometry>
        </mxCell>
        <mxCell id="bhXS3MV8dKdIblBS-BVA-297" value="RS232 level converter" style="rounded=0;whiteSpace=wrap;html=1;" parent="bhXS3MV8dKdIblBS-BVA-1" vertex="1">
          <mxGeometry x="361" y="1955" width="110" height="30" as="geometry" />
        </mxCell>
        <mxCell id="bhXS3MV8dKdIblBS-BVA-298" style="edgeStyle=orthogonalEdgeStyle;rounded=0;orthogonalLoop=1;jettySize=auto;html=1;exitX=0;exitY=0.75;exitDx=0;exitDy=0;entryX=1;entryY=0.75;entryDx=0;entryDy=0;startArrow=none;startFill=0;strokeWidth=1;" parent="bhXS3MV8dKdIblBS-BVA-1" source="bhXS3MV8dKdIblBS-BVA-300" target="bhXS3MV8dKdIblBS-BVA-297" edge="1">
          <mxGeometry relative="1" as="geometry" />
        </mxCell>
        <mxCell id="bhXS3MV8dKdIblBS-BVA-299" value="UART_TX" style="edgeLabel;html=1;align=center;verticalAlign=middle;resizable=0;points=[];" parent="bhXS3MV8dKdIblBS-BVA-298" vertex="1" connectable="0">
          <mxGeometry x="0.24" y="1" relative="1" as="geometry">
            <mxPoint as="offset" />
          </mxGeometry>
        </mxCell>
        <mxCell id="bhXS3MV8dKdIblBS-BVA-300" value="UART" style="rounded=0;whiteSpace=wrap;html=1;labelBackgroundColor=#ffffff;" parent="bhXS3MV8dKdIblBS-BVA-1" vertex="1">
          <mxGeometry x="621" y="1955" width="80" height="30" as="geometry" />
        </mxCell>
        <mxCell id="bhXS3MV8dKdIblBS-BVA-301" style="edgeStyle=orthogonalEdgeStyle;rounded=0;orthogonalLoop=1;jettySize=auto;html=1;exitX=1;exitY=0.5;exitDx=0;exitDy=0;entryX=0.5;entryY=1;entryDx=0;entryDy=0;startArrow=none;startFill=0;endArrow=classic;endFill=1;jumpStyle=arc;" parent="bhXS3MV8dKdIblBS-BVA-1" source="bhXS3MV8dKdIblBS-BVA-159" target="bhXS3MV8dKdIblBS-BVA-28" edge="1">
          <mxGeometry relative="1" as="geometry">
            <Array as="points">
              <mxPoint x="201" y="890" />
              <mxPoint x="201" y="700" />
              <mxPoint x="586" y="700" />
            </Array>
            <mxPoint x="341" y="864.9999999999998" as="sourcePoint" />
          </mxGeometry>
        </mxCell>
        <mxCell id="bhXS3MV8dKdIblBS-BVA-302" style="edgeStyle=orthogonalEdgeStyle;rounded=0;jumpStyle=arc;orthogonalLoop=1;jettySize=auto;html=1;startArrow=none;startFill=0;endArrow=classic;endFill=1;exitX=1;exitY=0.5;exitDx=0;exitDy=0;" parent="bhXS3MV8dKdIblBS-BVA-1" source="bhXS3MV8dKdIblBS-BVA-151" target="bhXS3MV8dKdIblBS-BVA-32" edge="1">
          <mxGeometry relative="1" as="geometry">
            <Array as="points">
              <mxPoint x="450" y="950" />
              <mxPoint x="450" y="760" />
              <mxPoint x="787" y="760" />
            </Array>
            <mxPoint x="301" y="925" as="sourcePoint" />
          </mxGeometry>
        </mxCell>
        <mxCell id="bhXS3MV8dKdIblBS-BVA-303" style="edgeStyle=orthogonalEdgeStyle;rounded=0;jumpStyle=arc;orthogonalLoop=1;jettySize=auto;html=1;exitX=1;exitY=0.5;exitDx=0;exitDy=0;entryX=0.565;entryY=1.011;entryDx=0;entryDy=0;startArrow=none;startFill=0;endArrow=classic;endFill=1;entryPerimeter=0;" parent="bhXS3MV8dKdIblBS-BVA-1" source="bhXS3MV8dKdIblBS-BVA-198" target="bhXS3MV8dKdIblBS-BVA-34" edge="1">
          <mxGeometry relative="1" as="geometry">
            <Array as="points">
              <mxPoint x="480" y="1025" />
              <mxPoint x="480" y="790" />
              <mxPoint x="891" y="790" />
            </Array>
            <mxPoint x="292.96000000000004" y="1005.19" as="sourcePoint" />
            <mxPoint x="896" y="680" as="targetPoint" />
          </mxGeometry>
        </mxCell>
        <mxCell id="uapWgZUnRm4Nr8oFXLXe-0" value="Legend:" style="text;html=1;align=left;verticalAlign=middle;resizable=0;points=[];autosize=1;strokeColor=none;fillColor=none;" parent="bhXS3MV8dKdIblBS-BVA-1" vertex="1">
          <mxGeometry x="701" y="10" width="70" height="30" as="geometry" />
        </mxCell>
        <mxCell id="uapWgZUnRm4Nr8oFXLXe-1" style="edgeStyle=orthogonalEdgeStyle;rounded=0;orthogonalLoop=1;jettySize=auto;html=1;strokeWidth=2;" parent="bhXS3MV8dKdIblBS-BVA-1" edge="1">
          <mxGeometry relative="1" as="geometry">
            <Array as="points">
              <mxPoint x="1031" y="50" />
              <mxPoint x="1031" y="50" />
            </Array>
            <mxPoint x="981" y="50" as="sourcePoint" />
            <mxPoint x="1071" y="50" as="targetPoint" />
          </mxGeometry>
        </mxCell>
        <mxCell id="uapWgZUnRm4Nr8oFXLXe-2" value="Power rail" style="text;html=1;align=center;verticalAlign=middle;resizable=0;points=[];labelBackgroundColor=#ffffff;" parent="uapWgZUnRm4Nr8oFXLXe-1" vertex="1" connectable="0">
          <mxGeometry x="-0.5083" y="-58" relative="1" as="geometry">
            <mxPoint x="21" y="-51" as="offset" />
          </mxGeometry>
        </mxCell>
        <mxCell id="uapWgZUnRm4Nr8oFXLXe-3" style="edgeStyle=orthogonalEdgeStyle;rounded=0;orthogonalLoop=1;jettySize=auto;html=1;strokeWidth=1;" parent="bhXS3MV8dKdIblBS-BVA-1" edge="1">
          <mxGeometry relative="1" as="geometry">
            <Array as="points">
              <mxPoint x="1028.5" y="90" />
              <mxPoint x="1028.5" y="90" />
            </Array>
            <mxPoint x="978.5" y="90" as="sourcePoint" />
            <mxPoint x="1068.5" y="90" as="targetPoint" />
          </mxGeometry>
        </mxCell>
        <mxCell id="uapWgZUnRm4Nr8oFXLXe-4" value="Signal" style="text;html=1;align=center;verticalAlign=middle;resizable=0;points=[];labelBackgroundColor=#ffffff;" parent="uapWgZUnRm4Nr8oFXLXe-3" vertex="1" connectable="0">
          <mxGeometry x="-0.5083" y="-58" relative="1" as="geometry">
            <mxPoint x="21" y="-51" as="offset" />
          </mxGeometry>
        </mxCell>
        <mxCell id="Zc1lBWjNl7q6e84oyqTN-12" value="Header" style="rounded=0;whiteSpace=wrap;html=1;fillColor=#dae8fc;strokeColor=#6c8ebf;" parent="bhXS3MV8dKdIblBS-BVA-1" vertex="1">
          <mxGeometry x="831" y="40" width="120" height="30" as="geometry" />
        </mxCell>
        <mxCell id="Zc1lBWjNl7q6e84oyqTN-16" value="" style="group;rotation=90;flipV=1;" parent="bhXS3MV8dKdIblBS-BVA-1" vertex="1" connectable="0">
          <mxGeometry x="408.25" y="2430" width="41" height="60" as="geometry" />
        </mxCell>
        <mxCell id="Zc1lBWjNl7q6e84oyqTN-20" style="edgeStyle=orthogonalEdgeStyle;rounded=0;orthogonalLoop=1;jettySize=auto;html=1;exitX=1;exitY=0.5;exitDx=0;exitDy=0;" parent="Zc1lBWjNl7q6e84oyqTN-16" source="bhXS3MV8dKdIblBS-BVA-129" edge="1">
          <mxGeometry relative="1" as="geometry">
            <mxPoint x="-111" y="90" as="targetPoint" />
          </mxGeometry>
        </mxCell>
        <mxCell id="bhXS3MV8dKdIblBS-BVA-129" value="" style="verticalLabelPosition=bottom;shadow=0;dashed=0;align=center;html=1;verticalAlign=top;shape=mxgraph.electrical.logic_gates.buffer2;labelBackgroundColor=#ffffff;rotation=180;" parent="Zc1lBWjNl7q6e84oyqTN-16" vertex="1">
          <mxGeometry x="-9" y="10" width="60" height="40" as="geometry" />
        </mxCell>
        <mxCell id="bhXS3MV8dKdIblBS-BVA-136" value="" style="ellipse;whiteSpace=wrap;html=1;aspect=fixed;labelBackgroundColor=#ffffff;rotation=90;" parent="Zc1lBWjNl7q6e84oyqTN-16" vertex="1">
          <mxGeometry x="16" y="9" width="10" height="10" as="geometry" />
        </mxCell>
        <mxCell id="Zc1lBWjNl7q6e84oyqTN-18" value="Output value" style="text;html=1;align=left;verticalAlign=middle;resizable=0;points=[];autosize=1;" parent="bhXS3MV8dKdIblBS-BVA-1" vertex="1">
          <mxGeometry x="588.25" y="2445" width="90" height="30" as="geometry" />
        </mxCell>
        <mxCell id="Zc1lBWjNl7q6e84oyqTN-21" style="edgeStyle=orthogonalEdgeStyle;rounded=0;orthogonalLoop=1;jettySize=auto;html=1;exitX=-0.04;exitY=0.5;exitDx=0;exitDy=0;entryX=0;entryY=0.5;entryDx=0;entryDy=0;exitPerimeter=0;" parent="bhXS3MV8dKdIblBS-BVA-1" source="bhXS3MV8dKdIblBS-BVA-137" target="bhXS3MV8dKdIblBS-BVA-136" edge="1">
          <mxGeometry relative="1" as="geometry">
            <mxPoint x="604.25" y="2470" as="sourcePoint" />
            <mxPoint x="469.25" y="2470" as="targetPoint" />
          </mxGeometry>
        </mxCell>
        <mxCell id="Zc1lBWjNl7q6e84oyqTN-22" value="When output enable = 1, the external pin is driven to output value.&lt;br&gt;When output enable = 0, the external pin can be driven externally and measured.&lt;br&gt;&lt;br&gt;The The 5V -&amp;gt; 3.3V is done via a linear op amp to preserve analog voltage on input.&lt;br&gt;The measure pin can then be connected to a microcontroller pin that supports ADC/GPIO configuration&lt;br&gt;(or to two separate ADC input and GPIO pins if dual ADC/GPIO configuration is not available on a MCU)." style="text;html=1;align=left;verticalAlign=middle;resizable=0;points=[];autosize=1;strokeColor=none;fillColor=none;" parent="bhXS3MV8dKdIblBS-BVA-1" vertex="1">
          <mxGeometry x="61" y="2610" width="580" height="100" as="geometry" />
        </mxCell>
        <mxCell id="Zc1lBWjNl7q6e84oyqTN-25" style="edgeStyle=orthogonalEdgeStyle;rounded=0;orthogonalLoop=1;jettySize=auto;html=1;exitX=1;exitY=0.5;exitDx=0;exitDy=0;entryX=0;entryY=0.5;entryDx=0;entryDy=0;startArrow=classic;startFill=1;" parent="bhXS3MV8dKdIblBS-BVA-1" source="Zc1lBWjNl7q6e84oyqTN-23" target="Zc1lBWjNl7q6e84oyqTN-24" edge="1">
          <mxGeometry relative="1" as="geometry" />
        </mxCell>
        <mxCell id="Zc1lBWjNl7q6e84oyqTN-23" value="MPIO buffer" style="rounded=0;whiteSpace=wrap;html=1;" parent="bhXS3MV8dKdIblBS-BVA-1" vertex="1">
          <mxGeometry x="361" y="1740" width="110" height="30" as="geometry" />
        </mxCell>
        <mxCell id="Zc1lBWjNl7q6e84oyqTN-24" value="ADC x1&lt;br&gt;GPIO out x2" style="rounded=0;whiteSpace=wrap;html=1;labelBackgroundColor=#ffffff;" parent="bhXS3MV8dKdIblBS-BVA-1" vertex="1">
          <mxGeometry x="621" y="1740" width="80" height="30" as="geometry" />
        </mxCell>
        <mxCell id="Zc1lBWjNl7q6e84oyqTN-39" style="edgeStyle=orthogonalEdgeStyle;rounded=0;orthogonalLoop=1;jettySize=auto;html=1;exitX=1;exitY=0.5;exitDx=0;exitDy=0;entryX=0;entryY=0.5;entryDx=0;entryDy=0;startArrow=classic;startFill=1;" parent="bhXS3MV8dKdIblBS-BVA-1" source="Zc1lBWjNl7q6e84oyqTN-26" target="Zc1lBWjNl7q6e84oyqTN-33" edge="1">
          <mxGeometry relative="1" as="geometry" />
        </mxCell>
        <mxCell id="Zc1lBWjNl7q6e84oyqTN-26" value="MPIO buffer" style="rounded=0;whiteSpace=wrap;html=1;" parent="bhXS3MV8dKdIblBS-BVA-1" vertex="1">
          <mxGeometry x="361" y="1770" width="110" height="30" as="geometry" />
        </mxCell>
        <mxCell id="Zc1lBWjNl7q6e84oyqTN-40" style="edgeStyle=orthogonalEdgeStyle;rounded=0;orthogonalLoop=1;jettySize=auto;html=1;exitX=1;exitY=0.5;exitDx=0;exitDy=0;entryX=0;entryY=0.5;entryDx=0;entryDy=0;startArrow=classic;startFill=1;" parent="bhXS3MV8dKdIblBS-BVA-1" source="Zc1lBWjNl7q6e84oyqTN-27" target="Zc1lBWjNl7q6e84oyqTN-34" edge="1">
          <mxGeometry relative="1" as="geometry" />
        </mxCell>
        <mxCell id="Zc1lBWjNl7q6e84oyqTN-27" value="MPIO buffer" style="rounded=0;whiteSpace=wrap;html=1;" parent="bhXS3MV8dKdIblBS-BVA-1" vertex="1">
          <mxGeometry x="361" y="1800" width="110" height="30" as="geometry" />
        </mxCell>
        <mxCell id="Zc1lBWjNl7q6e84oyqTN-41" style="edgeStyle=orthogonalEdgeStyle;rounded=0;orthogonalLoop=1;jettySize=auto;html=1;exitX=1;exitY=0.5;exitDx=0;exitDy=0;entryX=0;entryY=0.5;entryDx=0;entryDy=0;startArrow=classic;startFill=1;" parent="bhXS3MV8dKdIblBS-BVA-1" source="Zc1lBWjNl7q6e84oyqTN-28" target="Zc1lBWjNl7q6e84oyqTN-35" edge="1">
          <mxGeometry relative="1" as="geometry" />
        </mxCell>
        <mxCell id="Zc1lBWjNl7q6e84oyqTN-28" value="MPIO buffer" style="rounded=0;whiteSpace=wrap;html=1;" parent="bhXS3MV8dKdIblBS-BVA-1" vertex="1">
          <mxGeometry x="361" y="1830" width="110" height="30" as="geometry" />
        </mxCell>
        <mxCell id="Zc1lBWjNl7q6e84oyqTN-42" style="edgeStyle=orthogonalEdgeStyle;rounded=0;orthogonalLoop=1;jettySize=auto;html=1;exitX=1;exitY=0.5;exitDx=0;exitDy=0;entryX=0;entryY=0.5;entryDx=0;entryDy=0;startArrow=classic;startFill=1;" parent="bhXS3MV8dKdIblBS-BVA-1" source="Zc1lBWjNl7q6e84oyqTN-29" target="Zc1lBWjNl7q6e84oyqTN-36" edge="1">
          <mxGeometry relative="1" as="geometry" />
        </mxCell>
        <mxCell id="Zc1lBWjNl7q6e84oyqTN-29" value="MPIO buffer" style="rounded=0;whiteSpace=wrap;html=1;" parent="bhXS3MV8dKdIblBS-BVA-1" vertex="1">
          <mxGeometry x="361" y="1860" width="110" height="30" as="geometry" />
        </mxCell>
        <mxCell id="Zc1lBWjNl7q6e84oyqTN-43" style="edgeStyle=orthogonalEdgeStyle;rounded=0;orthogonalLoop=1;jettySize=auto;html=1;exitX=1;exitY=0.5;exitDx=0;exitDy=0;entryX=0;entryY=0.5;entryDx=0;entryDy=0;startArrow=classic;startFill=1;" parent="bhXS3MV8dKdIblBS-BVA-1" source="Zc1lBWjNl7q6e84oyqTN-30" target="Zc1lBWjNl7q6e84oyqTN-37" edge="1">
          <mxGeometry relative="1" as="geometry" />
        </mxCell>
        <mxCell id="Zc1lBWjNl7q6e84oyqTN-30" value="MPIO buffer" style="rounded=0;whiteSpace=wrap;html=1;" parent="bhXS3MV8dKdIblBS-BVA-1" vertex="1">
          <mxGeometry x="361" y="1890" width="110" height="30" as="geometry" />
        </mxCell>
        <mxCell id="Zc1lBWjNl7q6e84oyqTN-38" style="edgeStyle=orthogonalEdgeStyle;rounded=0;orthogonalLoop=1;jettySize=auto;html=1;exitX=1;exitY=0.5;exitDx=0;exitDy=0;entryX=0;entryY=0.5;entryDx=0;entryDy=0;startArrow=classic;startFill=1;" parent="bhXS3MV8dKdIblBS-BVA-1" source="Zc1lBWjNl7q6e84oyqTN-31" target="Zc1lBWjNl7q6e84oyqTN-32" edge="1">
          <mxGeometry relative="1" as="geometry" />
        </mxCell>
        <mxCell id="Zc1lBWjNl7q6e84oyqTN-31" value="MPIO buffer" style="rounded=0;whiteSpace=wrap;html=1;" parent="bhXS3MV8dKdIblBS-BVA-1" vertex="1">
          <mxGeometry x="361" y="1710" width="110" height="30" as="geometry" />
        </mxCell>
        <mxCell id="Zc1lBWjNl7q6e84oyqTN-32" value="ADC x1&lt;br&gt;GPIO out x2" style="rounded=0;whiteSpace=wrap;html=1;labelBackgroundColor=#ffffff;" parent="bhXS3MV8dKdIblBS-BVA-1" vertex="1">
          <mxGeometry x="621" y="1710" width="80" height="30" as="geometry" />
        </mxCell>
        <mxCell id="Zc1lBWjNl7q6e84oyqTN-33" value="ADC x1&lt;br&gt;GPIO out x2" style="rounded=0;whiteSpace=wrap;html=1;labelBackgroundColor=#ffffff;" parent="bhXS3MV8dKdIblBS-BVA-1" vertex="1">
          <mxGeometry x="621" y="1770" width="80" height="30" as="geometry" />
        </mxCell>
        <mxCell id="Zc1lBWjNl7q6e84oyqTN-34" value="ADC x1&lt;br&gt;GPIO out x2" style="rounded=0;whiteSpace=wrap;html=1;labelBackgroundColor=#ffffff;" parent="bhXS3MV8dKdIblBS-BVA-1" vertex="1">
          <mxGeometry x="621" y="1800" width="80" height="30" as="geometry" />
        </mxCell>
        <mxCell id="Zc1lBWjNl7q6e84oyqTN-35" value="ADC x1&lt;br&gt;GPIO out x2" style="rounded=0;whiteSpace=wrap;html=1;labelBackgroundColor=#ffffff;" parent="bhXS3MV8dKdIblBS-BVA-1" vertex="1">
          <mxGeometry x="621" y="1830" width="80" height="30" as="geometry" />
        </mxCell>
        <mxCell id="Zc1lBWjNl7q6e84oyqTN-36" value="ADC x1&lt;br&gt;GPIO out x2" style="rounded=0;whiteSpace=wrap;html=1;labelBackgroundColor=#ffffff;" parent="bhXS3MV8dKdIblBS-BVA-1" vertex="1">
          <mxGeometry x="621" y="1860" width="80" height="30" as="geometry" />
        </mxCell>
        <mxCell id="Zc1lBWjNl7q6e84oyqTN-37" value="ADC x1&lt;br&gt;GPIO out x2" style="rounded=0;whiteSpace=wrap;html=1;labelBackgroundColor=#ffffff;" parent="bhXS3MV8dKdIblBS-BVA-1" vertex="1">
          <mxGeometry x="621" y="1890" width="80" height="30" as="geometry" />
        </mxCell>
        <mxCell id="Zc1lBWjNl7q6e84oyqTN-44" value="&lt;font color=&quot;#ff3333&quot;&gt;PDM Relay 2&lt;/font&gt;" style="rounded=0;whiteSpace=wrap;html=1;strokeColor=#FF3333;" parent="bhXS3MV8dKdIblBS-BVA-1" vertex="1">
          <mxGeometry x="711" y="335" width="120" height="30" as="geometry" />
        </mxCell>
        <mxCell id="Zc1lBWjNl7q6e84oyqTN-45" value="&lt;font color=&quot;#ff3333&quot;&gt;PDM Relay 3&lt;/font&gt;" style="rounded=0;whiteSpace=wrap;html=1;strokeColor=#FF3333;" parent="bhXS3MV8dKdIblBS-BVA-1" vertex="1">
          <mxGeometry x="711" y="365" width="120" height="30" as="geometry" />
        </mxCell>
        <mxCell id="Zc1lBWjNl7q6e84oyqTN-46" value="&lt;font color=&quot;#ff3333&quot;&gt;PDM Relay 4&lt;/font&gt;" style="rounded=0;whiteSpace=wrap;html=1;strokeColor=#FF3333;" parent="bhXS3MV8dKdIblBS-BVA-1" vertex="1">
          <mxGeometry x="711" y="395" width="120" height="30" as="geometry" />
        </mxCell>
        <mxCell id="Zc1lBWjNl7q6e84oyqTN-47" value="&lt;font color=&quot;#ff3333&quot;&gt;PDM Relay 5&lt;/font&gt;" style="rounded=0;whiteSpace=wrap;html=1;strokeColor=#FF3333;" parent="bhXS3MV8dKdIblBS-BVA-1" vertex="1">
          <mxGeometry x="711" y="425" width="120" height="30" as="geometry" />
        </mxCell>
        <mxCell id="Zc1lBWjNl7q6e84oyqTN-48" value="&lt;font color=&quot;#ff3333&quot;&gt;PDM Relay 5&lt;/font&gt;" style="rounded=0;whiteSpace=wrap;html=1;strokeColor=#FF3333;" parent="bhXS3MV8dKdIblBS-BVA-1" vertex="1">
          <mxGeometry x="711" y="455" width="120" height="30" as="geometry" />
        </mxCell>
        <mxCell id="Zc1lBWjNl7q6e84oyqTN-51" value="5V rail" style="rounded=0;whiteSpace=wrap;html=1;fontStyle=3" parent="bhXS3MV8dKdIblBS-BVA-1" vertex="1">
          <mxGeometry x="1260" y="195" width="120" height="25" as="geometry" />
        </mxCell>
        <mxCell id="Zc1lBWjNl7q6e84oyqTN-52" value="3V3 rail" style="rounded=0;whiteSpace=wrap;html=1;fontStyle=3" parent="bhXS3MV8dKdIblBS-BVA-1" vertex="1">
          <mxGeometry x="1260" y="220" width="120" height="25" as="geometry" />
        </mxCell>
        <mxCell id="Zc1lBWjNl7q6e84oyqTN-55" style="edgeStyle=orthogonalEdgeStyle;rounded=0;orthogonalLoop=1;jettySize=auto;html=1;exitX=1;exitY=0.5;exitDx=0;exitDy=0;entryX=0;entryY=0.5;entryDx=0;entryDy=0;strokeWidth=2;" parent="bhXS3MV8dKdIblBS-BVA-1" source="Zc1lBWjNl7q6e84oyqTN-54" target="Zc1lBWjNl7q6e84oyqTN-52" edge="1">
          <mxGeometry relative="1" as="geometry" />
        </mxCell>
        <mxCell id="Zc1lBWjNl7q6e84oyqTN-54" value="5V/3V3 linear reg" style="rounded=0;whiteSpace=wrap;html=1;" parent="bhXS3MV8dKdIblBS-BVA-1" vertex="1">
          <mxGeometry x="1061" y="220" width="120" height="25" as="geometry" />
        </mxCell>
        <mxCell id="8c8xWaF724guFR5YU8nx-3" style="edgeStyle=orthogonalEdgeStyle;rounded=0;orthogonalLoop=1;jettySize=auto;html=1;exitX=1;exitY=0.5;exitDx=0;exitDy=0;entryX=0;entryY=0.5;entryDx=0;entryDy=0;" parent="bhXS3MV8dKdIblBS-BVA-1" source="8c8xWaF724guFR5YU8nx-1" target="8c8xWaF724guFR5YU8nx-2" edge="1">
          <mxGeometry relative="1" as="geometry" />
        </mxCell>
        <mxCell id="8c8xWaF724guFR5YU8nx-4" value="DIN_24V" style="edgeLabel;html=1;align=center;verticalAlign=middle;resizable=0;points=[];" parent="8c8xWaF724guFR5YU8nx-3" vertex="1" connectable="0">
          <mxGeometry x="-0.1429" y="1" relative="1" as="geometry">
            <mxPoint as="offset" />
          </mxGeometry>
        </mxCell>
        <mxCell id="8c8xWaF724guFR5YU8nx-1" value="INV_ERR" style="rounded=0;whiteSpace=wrap;html=1;fillColor=#fff2cc;strokeColor=#d6b656;" parent="bhXS3MV8dKdIblBS-BVA-1" vertex="1">
          <mxGeometry x="50" y="1610" width="80" height="30" as="geometry" />
        </mxCell>
        <mxCell id="8c8xWaF724guFR5YU8nx-6" style="edgeStyle=orthogonalEdgeStyle;rounded=0;orthogonalLoop=1;jettySize=auto;html=1;exitX=1;exitY=0.5;exitDx=0;exitDy=0;entryX=0;entryY=0.5;entryDx=0;entryDy=0;" parent="bhXS3MV8dKdIblBS-BVA-1" source="8c8xWaF724guFR5YU8nx-2" target="8c8xWaF724guFR5YU8nx-5" edge="1">
          <mxGeometry relative="1" as="geometry" />
        </mxCell>
        <mxCell id="8c8xWaF724guFR5YU8nx-7" value="DIN_3.3V" style="edgeLabel;html=1;align=center;verticalAlign=middle;resizable=0;points=[];" parent="8c8xWaF724guFR5YU8nx-6" vertex="1" connectable="0">
          <mxGeometry x="-0.2" y="1" relative="1" as="geometry">
            <mxPoint as="offset" />
          </mxGeometry>
        </mxCell>
        <mxCell id="8c8xWaF724guFR5YU8nx-2" value="DIN level step down" style="rounded=0;whiteSpace=wrap;html=1;" parent="bhXS3MV8dKdIblBS-BVA-1" vertex="1">
          <mxGeometry x="361" y="1610" width="110" height="30" as="geometry" />
        </mxCell>
        <mxCell id="8c8xWaF724guFR5YU8nx-5" value="GPIO in" style="rounded=0;whiteSpace=wrap;html=1;labelBackgroundColor=#ffffff;" parent="bhXS3MV8dKdIblBS-BVA-1" vertex="1">
          <mxGeometry x="621" y="1610" width="80" height="30" as="geometry" />
        </mxCell>
        <mxCell id="O4VgA1XZGmtUZAkumfmo-2" style="edgeStyle=orthogonalEdgeStyle;rounded=0;orthogonalLoop=1;jettySize=auto;html=1;exitX=1;exitY=0.5;exitDx=0;exitDy=0;entryX=1;entryY=0.5;entryDx=0;entryDy=0;" parent="bhXS3MV8dKdIblBS-BVA-1" source="O4VgA1XZGmtUZAkumfmo-0" target="Zc1lBWjNl7q6e84oyqTN-48" edge="1">
          <mxGeometry relative="1" as="geometry">
            <Array as="points">
              <mxPoint x="1180" y="905" />
              <mxPoint x="1180" y="470" />
            </Array>
          </mxGeometry>
        </mxCell>
        <mxCell id="O4VgA1XZGmtUZAkumfmo-3" style="edgeStyle=orthogonalEdgeStyle;rounded=0;orthogonalLoop=1;jettySize=auto;html=1;exitX=1;exitY=0.5;exitDx=0;exitDy=0;entryX=1;entryY=0.5;entryDx=0;entryDy=0;" parent="bhXS3MV8dKdIblBS-BVA-1" source="O4VgA1XZGmtUZAkumfmo-0" target="Zc1lBWjNl7q6e84oyqTN-47" edge="1">
          <mxGeometry relative="1" as="geometry">
            <Array as="points">
              <mxPoint x="1180" y="905" />
              <mxPoint x="1180" y="440" />
            </Array>
          </mxGeometry>
        </mxCell>
        <mxCell id="O4VgA1XZGmtUZAkumfmo-4" style="edgeStyle=orthogonalEdgeStyle;rounded=0;orthogonalLoop=1;jettySize=auto;html=1;exitX=1;exitY=0.5;exitDx=0;exitDy=0;entryX=1;entryY=0.5;entryDx=0;entryDy=0;" parent="bhXS3MV8dKdIblBS-BVA-1" source="O4VgA1XZGmtUZAkumfmo-0" target="Zc1lBWjNl7q6e84oyqTN-46" edge="1">
          <mxGeometry relative="1" as="geometry">
            <Array as="points">
              <mxPoint x="1180" y="905" />
              <mxPoint x="1180" y="410" />
            </Array>
          </mxGeometry>
        </mxCell>
        <mxCell id="O4VgA1XZGmtUZAkumfmo-5" style="edgeStyle=orthogonalEdgeStyle;rounded=0;orthogonalLoop=1;jettySize=auto;html=1;exitX=1;exitY=0.5;exitDx=0;exitDy=0;entryX=1;entryY=0.5;entryDx=0;entryDy=0;" parent="bhXS3MV8dKdIblBS-BVA-1" source="O4VgA1XZGmtUZAkumfmo-0" target="Zc1lBWjNl7q6e84oyqTN-45" edge="1">
          <mxGeometry relative="1" as="geometry">
            <Array as="points">
              <mxPoint x="1180" y="905" />
              <mxPoint x="1180" y="380" />
            </Array>
          </mxGeometry>
        </mxCell>
        <mxCell id="O4VgA1XZGmtUZAkumfmo-6" style="edgeStyle=orthogonalEdgeStyle;rounded=0;orthogonalLoop=1;jettySize=auto;html=1;exitX=1;exitY=0.5;exitDx=0;exitDy=0;entryX=1;entryY=0.5;entryDx=0;entryDy=0;" parent="bhXS3MV8dKdIblBS-BVA-1" source="O4VgA1XZGmtUZAkumfmo-0" target="Zc1lBWjNl7q6e84oyqTN-44" edge="1">
          <mxGeometry relative="1" as="geometry">
            <Array as="points">
              <mxPoint x="1180" y="905" />
              <mxPoint x="1180" y="350" />
            </Array>
          </mxGeometry>
        </mxCell>
        <mxCell id="O4VgA1XZGmtUZAkumfmo-7" style="edgeStyle=orthogonalEdgeStyle;rounded=0;orthogonalLoop=1;jettySize=auto;html=1;exitX=1;exitY=0.5;exitDx=0;exitDy=0;entryX=1;entryY=0.5;entryDx=0;entryDy=0;" parent="bhXS3MV8dKdIblBS-BVA-1" source="O4VgA1XZGmtUZAkumfmo-0" target="bhXS3MV8dKdIblBS-BVA-50" edge="1">
          <mxGeometry relative="1" as="geometry">
            <Array as="points">
              <mxPoint x="1180" y="905" />
              <mxPoint x="1180" y="320" />
            </Array>
          </mxGeometry>
        </mxCell>
        <mxCell id="O4VgA1XZGmtUZAkumfmo-0" value="Transistor switch x6" style="rounded=0;whiteSpace=wrap;html=1;labelBackgroundColor=#ffffff;" parent="bhXS3MV8dKdIblBS-BVA-1" vertex="1">
          <mxGeometry x="1020" y="890" width="110" height="30" as="geometry" />
        </mxCell>
        <mxCell id="Ujjv7-og6DaEMyTGlRil-3" value="Internal RTC" style="rounded=0;whiteSpace=wrap;html=1;" parent="bhXS3MV8dKdIblBS-BVA-1" vertex="1">
          <mxGeometry x="871" y="1115" width="80" height="60" as="geometry" />
        </mxCell>
        <mxCell id="Ujjv7-og6DaEMyTGlRil-4" style="edgeStyle=orthogonalEdgeStyle;rounded=0;orthogonalLoop=1;jettySize=auto;html=1;exitX=0;exitY=0.5;exitDx=0;exitDy=0;entryX=1;entryY=0.25;entryDx=0;entryDy=0;strokeWidth=2;" parent="bhXS3MV8dKdIblBS-BVA-1" source="bhXS3MV8dKdIblBS-BVA-92" target="bhXS3MV8dKdIblBS-BVA-140" edge="1">
          <mxGeometry relative="1" as="geometry">
            <mxPoint x="961" y="1455" as="targetPoint" />
            <mxPoint x="1351" y="1444" as="sourcePoint" />
          </mxGeometry>
        </mxCell>
        <mxCell id="Ujjv7-og6DaEMyTGlRil-8" value="EEPROM" style="rounded=0;whiteSpace=wrap;html=1;" parent="bhXS3MV8dKdIblBS-BVA-1" vertex="1">
          <mxGeometry x="1094" y="1511" width="100" height="60" as="geometry" />
        </mxCell>
        <mxCell id="Ujjv7-og6DaEMyTGlRil-10" style="edgeStyle=orthogonalEdgeStyle;rounded=0;orthogonalLoop=1;jettySize=auto;html=1;exitX=1;exitY=0.5;exitDx=0;exitDy=0;entryX=0;entryY=0.25;entryDx=0;entryDy=0;startArrow=classic;startFill=1;" parent="bhXS3MV8dKdIblBS-BVA-1" source="Ujjv7-og6DaEMyTGlRil-9" target="Ujjv7-og6DaEMyTGlRil-8" edge="1">
          <mxGeometry relative="1" as="geometry" />
        </mxCell>
        <mxCell id="Ujjv7-og6DaEMyTGlRil-9" value="I2C" style="rounded=0;whiteSpace=wrap;html=1;" parent="bhXS3MV8dKdIblBS-BVA-1" vertex="1">
          <mxGeometry x="871" y="1511" width="80" height="31" as="geometry" />
        </mxCell>
        <mxCell id="Ujjv7-og6DaEMyTGlRil-12" style="edgeStyle=orthogonalEdgeStyle;rounded=0;orthogonalLoop=1;jettySize=auto;html=1;exitX=1;exitY=0.5;exitDx=0;exitDy=0;entryX=0;entryY=0.75;entryDx=0;entryDy=0;startArrow=classic;startFill=1;" parent="bhXS3MV8dKdIblBS-BVA-1" source="Ujjv7-og6DaEMyTGlRil-11" target="Ujjv7-og6DaEMyTGlRil-8" edge="1">
          <mxGeometry relative="1" as="geometry" />
        </mxCell>
        <mxCell id="Ujjv7-og6DaEMyTGlRil-11" value="GPIO (addr. config)" style="rounded=0;whiteSpace=wrap;html=1;" parent="bhXS3MV8dKdIblBS-BVA-1" vertex="1">
          <mxGeometry x="871" y="1542" width="80" height="31" as="geometry" />
        </mxCell>
        <mxCell id="lXTbxmUrdeCoC9fVBDge-0" value="5V out" style="rounded=0;whiteSpace=wrap;html=1;fillColor=#fff2cc;strokeColor=#d6b656;" vertex="1" parent="bhXS3MV8dKdIblBS-BVA-1">
          <mxGeometry x="50" y="500" width="80" height="30" as="geometry" />
        </mxCell>
        <mxCell id="lXTbxmUrdeCoC9fVBDge-2" style="edgeStyle=orthogonalEdgeStyle;rounded=0;orthogonalLoop=1;jettySize=auto;html=1;exitX=0;exitY=0.5;exitDx=0;exitDy=0;entryX=1;entryY=0.5;entryDx=0;entryDy=0;strokeWidth=2;" edge="1" parent="bhXS3MV8dKdIblBS-BVA-1" source="lXTbxmUrdeCoC9fVBDge-1" target="lXTbxmUrdeCoC9fVBDge-0">
          <mxGeometry relative="1" as="geometry" />
        </mxCell>
        <mxCell id="lXTbxmUrdeCoC9fVBDge-1" value="5V rail" style="rounded=0;whiteSpace=wrap;html=1;fontStyle=3" vertex="1" parent="bhXS3MV8dKdIblBS-BVA-1">
          <mxGeometry x="211" y="502.5" width="120" height="25" as="geometry" />
        </mxCell>
        <mxCell id="lXTbxmUrdeCoC9fVBDge-8" style="edgeStyle=orthogonalEdgeStyle;rounded=0;orthogonalLoop=1;jettySize=auto;html=1;exitX=1;exitY=0.5;exitDx=0;exitDy=0;entryX=0.5;entryY=1;entryDx=0;entryDy=0;" edge="1" parent="bhXS3MV8dKdIblBS-BVA-1" source="lXTbxmUrdeCoC9fVBDge-3" target="bhXS3MV8dKdIblBS-BVA-30">
          <mxGeometry relative="1" as="geometry">
            <Array as="points">
              <mxPoint x="420" y="840" />
              <mxPoint x="420" y="740" />
              <mxPoint x="686" y="740" />
            </Array>
          </mxGeometry>
        </mxCell>
        <mxCell id="lXTbxmUrdeCoC9fVBDge-3" value="BSPD" style="rounded=0;whiteSpace=wrap;html=1;" vertex="1" parent="bhXS3MV8dKdIblBS-BVA-1">
          <mxGeometry x="301.5" y="800" width="99" height="80" as="geometry" />
        </mxCell>
        <mxCell id="bhXS3MV8dKdIblBS-BVA-199" style="edgeStyle=orthogonalEdgeStyle;rounded=0;orthogonalLoop=1;jettySize=auto;html=1;exitX=1;exitY=0.5;exitDx=0;exitDy=0;entryX=0;entryY=0.5;entryDx=0;entryDy=0;startArrow=none;startFill=0;strokeWidth=1;" parent="bhXS3MV8dKdIblBS-BVA-1" source="bhXS3MV8dKdIblBS-BVA-200" target="bhXS3MV8dKdIblBS-BVA-210" edge="1">
          <mxGeometry relative="1" as="geometry" />
        </mxCell>
        <mxCell id="lXTbxmUrdeCoC9fVBDge-9" value="AIN_5V" style="edgeLabel;html=1;align=center;verticalAlign=middle;resizable=0;points=[];" vertex="1" connectable="0" parent="bhXS3MV8dKdIblBS-BVA-199">
          <mxGeometry x="0.0736" y="-3" relative="1" as="geometry">
            <mxPoint x="-34" y="-3" as="offset" />
          </mxGeometry>
        </mxCell>
      </root>
    </mxGraphModel>
  </diagram>
</mxfile>
